<?xml version="1.0" standalone="no"?>
<!DOCTYPE svg PUBLIC "-//W3C//DTD SVG 20010904//EN"
 "http://www.w3.org/TR/2001/REC-SVG-20010904/DTD/svg10.dtd">
<svg version="1.0" xmlns="http://www.w3.org/2000/svg"
 width="283.000000pt" height="283.000000pt" viewBox="0 0 283.000000 283.000000"
 preserveAspectRatio="xMidYMid meet">
<metadata>
Created by potrace 1.14, written by Peter Selinger 2001-2017
</metadata>
<g transform="translate(0.000000,283.000000) scale(0.100000,-0.100000)"
fill="#000000" stroke="none">
<path d="M0 2285 c0 -429 3 -545 13 -546 12 -1 98 -1 128 0 15 1 16 46 15 466
-1 458 -1 465 19 466 11 0 223 1 470 1 l450 1 -2 66 c-1 36 -2 72 -2 79 -1 9
-117 12 -546 12 l-545 0 0 -545z"/>
<path d="M1727 2773 c1 -32 2 -68 2 -79 l1 -21 460 0 c253 0 463 -3 467 -6 3
-4 6 -214 6 -467 l0 -460 24 -1 c12 0 43 -1 68 -1 25 0 50 1 55 1 7 1 10 190
10 546 l0 545 -547 0 -548 0 2 -57z"/>
<path d="M460 2558 c-20 -7 -20 -16 -18 -345 l3 -337 130 -1 c180 0 249 9 321
45 77 38 113 86 121 162 9 92 -36 143 -141 162 l-40 8 43 18 c49 23 63 35 85
77 50 99 -21 189 -167 209 -59 9 -315 10 -337 2z m275 -108 c22 -18 20 -102
-3 -130 -10 -12 -32 -24 -50 -26 l-32 -4 0 89 0 89 35 -2 c19 -2 41 -9 50 -16z
m16 -269 c19 -16 23 -27 22 -79 -1 -87 -36 -132 -104 -132 -18 0 -19 8 -19
115 l0 115 39 0 c23 0 48 -8 62 -19z"/>
<path d="M1125 2560 l-30 -5 -1 -340 -1 -341 95 2 c66 2 97 6 103 15 4 8 8 52
8 99 -1 154 -2 150 25 150 56 0 131 -138 135 -246 1 -19 7 -20 106 -19 115 0
127 6 119 54 -16 91 -60 171 -119 218 l-33 26 36 24 c69 48 99 113 87 193 -15
103 -74 148 -216 166 -62 8 -277 11 -314 4z m267 -99 c13 -1 30 -43 34 -80 8
-86 -29 -139 -95 -137 l-34 1 1 68 c0 37 1 87 1 113 l1 45 43 -5 c23 -3 45 -5
49 -5z"/>
<path d="M1808 2562 l-48 -3 -1 -82 c-3 -520 -3 -522 91 -569 66 -33 121 -41
261 -41 107 1 142 5 237 24 l52 10 -2 332 -3 332 -89 -2 c-49 -1 -95 -4 -103
-7 -10 -4 -13 -61 -13 -290 0 -324 9 -296 -100 -296 -52 0 -73 4 -91 19 -24
19 -24 20 -29 297 l-5 277 -55 1 c-30 1 -76 0 -102 -2z"/>
<path d="M645 1743 c-138 -23 -208 -60 -224 -119 -12 -45 3 -87 45 -125 29
-26 192 -139 200 -139 3 0 29 -18 58 -40 78 -59 88 -98 37 -144 -17 -16 -36
-19 -113 -18 -54 0 -113 6 -140 15 -53 16 -66 10 -87 -45 -13 -36 8 -54 89
-76 40 -10 286 -9 333 2 151 35 224 130 180 236 -16 40 -56 73 -205 166 -159
101 -190 139 -141 171 32 21 175 29 252 15 64 -12 74 -9 96 25 15 23 15 26 0
43 -9 10 -33 21 -53 26 -37 7 -290 13 -327 7z"/>
<path d="M1134 1729 c-5 -8 -8 -489 -5 -657 1 -23 2 -23 109 -20 l107 3 3 153
c1 83 6 153 10 153 4 1 46 2 95 3 l87 1 0 -158 0 -158 106 2 c84 1 107 4 111
17 5 12 8 496 4 640 l-1 33 -97 -2 c-54 -1 -104 -4 -110 -6 -10 -4 -13 -40
-13 -134 l0 -129 -95 0 -95 0 0 135 0 135 -104 0 c-65 0 -107 -4 -112 -11z"/>
<path d="M1893 1728 c-7 -8 -10 -138 -9 -343 l1 -330 243 -3 242 -2 10 25 c5
14 8 36 6 48 -3 21 -7 22 -139 25 -99 2 -137 6 -138 15 -5 64 -2 200 5 204 5
3 55 6 112 7 56 1 105 4 108 7 12 12 14 88 2 91 -6 2 -59 4 -118 3 -122 -1
-116 -6 -113 95 l2 65 133 3 c78 1 139 7 147 14 7 6 13 28 13 49 l0 39 -249 0
c-187 0 -251 -3 -258 -12z"/>
<path d="M23 1102 l-23 -3 0 -545 0 -544 545 0 545 0 1 23 c1 23 1 91 0 118
-1 15 -46 16 -461 16 -253 0 -463 3 -467 7 -3 3 -6 213 -6 466 0 334 -3 460
-11 461 -43 3 -105 3 -123 1z"/>
<path d="M2684 1102 c-21 -3 -21 -3 -21 -463 0 -253 -3 -462 -7 -466 -3 -4
-213 -6 -466 -6 l-460 1 -1 -39 c-1 -22 -1 -50 -1 -64 0 -14 0 -32 1 -40 1
-13 69 -15 546 -15 l545 0 -2 547 -3 546 -55 1 c-30 1 -64 0 -76 -2z"/>
<path d="M450 946 c-6 -6 -10 -145 -10 -343 l0 -333 43 0 c281 -4 441 0 447
10 4 6 7 29 8 50 2 32 -2 40 -16 41 -9 1 -72 1 -139 1 l-123 -1 0 294 0 293
-100 -2 c-56 0 -105 -5 -110 -10z"/>
<path d="M1037 948 c-14 -8 -18 -666 -5 -674 12 -8 465 -7 477 1 16 9 14 95
-1 96 -7 0 -69 1 -138 2 l-125 2 -1 285 c-1 157 -2 288 -3 291 -1 9 -190 6
-204 -3z"/>
<path d="M1897 949 c-10 -6 -65 -106 -121 -222 -57 -117 -131 -267 -164 -335
l-61 -122 42 -1 c118 -4 181 0 192 13 6 7 24 42 38 78 l27 66 125 -1 c142 0
135 3 174 -96 25 -66 15 -62 149 -61 40 0 80 3 88 6 17 7 15 13 -174 397
l-141 286 -78 2 c-43 0 -86 -4 -96 -10z m101 -230 c7 -28 24 -80 38 -115 14
-35 23 -67 20 -72 -4 -6 -126 -9 -158 -3 -4 0 6 31 21 69 15 37 33 91 40 120
7 28 16 52 20 52 4 0 13 -23 19 -51z"/>
</g>
</svg>
