<svg width="127" height="65" viewBox="0 0 127 65" fill="none" xmlns="http://www.w3.org/2000/svg">
<line x1="110.25" y1="54.75" x2="125.914" y2="54.75" stroke="black" stroke-width="0.5" stroke-linecap="round"/>
<path d="M2 55H18.1638" stroke="black" stroke-width="0.5" stroke-linecap="round"/>
<path d="M23.014 57L25.254 52.1H25.765L28.005 57H27.459L25.401 52.401H25.611L23.553 57H23.014ZM23.896 55.691L24.05 55.271H26.899L27.053 55.691H23.896ZM30.4256 57V52.1H32.2596C32.6749 52.1 33.0319 52.1677 33.3306 52.303C33.6292 52.4337 33.8579 52.625 34.0166 52.877C34.1799 53.1243 34.2616 53.4253 34.2616 53.78C34.2616 54.1253 34.1799 54.424 34.0166 54.676C33.8579 54.9233 33.6292 55.1147 33.3306 55.25C33.0319 55.3807 32.6749 55.446 32.2596 55.446H30.7126L30.9436 55.208V57H30.4256ZM33.7716 57L32.5116 55.222H33.0716L34.3386 57H33.7716ZM30.9436 55.25L30.7126 55.005H32.2456C32.7356 55.005 33.1066 54.8977 33.3586 54.683C33.6152 54.4683 33.7436 54.1673 33.7436 53.78C33.7436 53.388 33.6152 53.0847 33.3586 52.87C33.1066 52.6553 32.7356 52.548 32.2456 52.548H30.7126L30.9436 52.303V55.25ZM37.9778 57V52.548H36.2558V52.1H40.2178V52.548H38.4958V57H37.9778ZM45.3134 57L47.5534 52.1H48.0644L50.3044 57H49.7584L47.7004 52.401H47.9104L45.8524 57H45.3134ZM46.1954 55.691L46.3494 55.271H49.1984L49.3524 55.691H46.1954ZM52.725 57V52.1H53.152L56.533 56.356H56.309V52.1H56.82V57H56.393L53.019 52.744H53.243V57H52.725ZM60.0293 57V52.1H62.0243C62.547 52.1 63.0043 52.205 63.3963 52.415C63.793 52.6203 64.101 52.9073 64.3203 53.276C64.5396 53.6447 64.6493 54.0693 64.6493 54.55C64.6493 55.0307 64.5396 55.4553 64.3203 55.824C64.101 56.1927 63.793 56.482 63.3963 56.692C63.0043 56.8973 62.547 57 62.0243 57H60.0293ZM60.5473 56.552H61.9963C62.4303 56.552 62.806 56.468 63.1233 56.3C63.4453 56.1273 63.695 55.8917 63.8723 55.593C64.0496 55.2897 64.1383 54.942 64.1383 54.55C64.1383 54.1533 64.0496 53.8057 63.8723 53.507C63.695 53.2083 63.4453 52.975 63.1233 52.807C62.806 52.6343 62.4303 52.548 61.9963 52.548H60.5473V56.552ZM70.8645 57V52.1H72.8595C73.3822 52.1 73.8395 52.205 74.2315 52.415C74.6282 52.6203 74.9362 52.9073 75.1555 53.276C75.3749 53.6447 75.4845 54.0693 75.4845 54.55C75.4845 55.0307 75.3749 55.4553 75.1555 55.824C74.9362 56.1927 74.6282 56.482 74.2315 56.692C73.8395 56.8973 73.3822 57 72.8595 57H70.8645ZM71.3825 56.552H72.8315C73.2655 56.552 73.6412 56.468 73.9585 56.3C74.2805 56.1273 74.5302 55.8917 74.7075 55.593C74.8849 55.2897 74.9735 54.942 74.9735 54.55C74.9735 54.1533 74.8849 53.8057 74.7075 53.507C74.5302 53.2083 74.2805 52.975 73.9585 52.807C73.6412 52.6343 73.2655 52.548 72.8315 52.548H71.3825V56.552ZM78.7197 54.291H81.3097V54.732H78.7197V54.291ZM78.7757 56.552H81.7227V57H78.2577V52.1H81.6177V52.548H78.7757V56.552ZM86.6647 57.042C86.296 57.042 85.9553 56.9813 85.6427 56.86C85.33 56.734 85.0593 56.559 84.8307 56.335C84.602 56.111 84.4223 55.8473 84.2917 55.544C84.1657 55.2407 84.1027 54.9093 84.1027 54.55C84.1027 54.1907 84.1657 53.8593 84.2917 53.556C84.4223 53.2527 84.602 52.989 84.8307 52.765C85.064 52.541 85.337 52.3683 85.6497 52.247C85.9623 52.121 86.303 52.058 86.6717 52.058C87.0263 52.058 87.36 52.1187 87.6727 52.24C87.9853 52.3567 88.249 52.534 88.4637 52.772L88.1347 53.101C87.934 52.8957 87.7123 52.7487 87.4697 52.66C87.227 52.5667 86.9657 52.52 86.6857 52.52C86.3917 52.52 86.1187 52.5713 85.8667 52.674C85.6147 52.772 85.3953 52.9143 85.2087 53.101C85.022 53.283 84.875 53.4977 84.7677 53.745C84.665 53.9877 84.6137 54.256 84.6137 54.55C84.6137 54.844 84.665 55.1147 84.7677 55.362C84.875 55.6047 85.022 55.8193 85.2087 56.006C85.3953 56.188 85.6147 56.3303 85.8667 56.433C86.1187 56.531 86.3917 56.58 86.6857 56.58C86.9657 56.58 87.227 56.5333 87.4697 56.44C87.7123 56.3467 87.934 56.1973 88.1347 55.992L88.4637 56.321C88.249 56.559 87.9853 56.7387 87.6727 56.86C87.36 56.9813 87.024 57.042 86.6647 57.042ZM93.2174 57.042C92.8487 57.042 92.5057 56.9813 92.1884 56.86C91.8757 56.734 91.6027 56.559 91.3694 56.335C91.1407 56.1063 90.961 55.8427 90.8304 55.544C90.7044 55.2407 90.6414 54.9093 90.6414 54.55C90.6414 54.1907 90.7044 53.8617 90.8304 53.563C90.961 53.2597 91.1407 52.996 91.3694 52.772C91.6027 52.5433 91.8757 52.3683 92.1884 52.247C92.501 52.121 92.844 52.058 93.2174 52.058C93.586 52.058 93.9267 52.121 94.2394 52.247C94.552 52.3683 94.8227 52.541 95.0514 52.765C95.2847 52.989 95.4644 53.2527 95.5904 53.556C95.721 53.8593 95.7864 54.1907 95.7864 54.55C95.7864 54.9093 95.721 55.2407 95.5904 55.544C95.4644 55.8473 95.2847 56.111 95.0514 56.335C94.8227 56.559 94.552 56.734 94.2394 56.86C93.9267 56.9813 93.586 57.042 93.2174 57.042ZM93.2174 56.58C93.5114 56.58 93.782 56.531 94.0294 56.433C94.2814 56.3303 94.4984 56.188 94.6804 56.006C94.867 55.8193 95.0117 55.6047 95.1144 55.362C95.217 55.1147 95.2684 54.844 95.2684 54.55C95.2684 54.256 95.217 53.9877 95.1144 53.745C95.0117 53.4977 94.867 53.283 94.6804 53.101C94.4984 52.9143 94.2814 52.772 94.0294 52.674C93.782 52.5713 93.5114 52.52 93.2174 52.52C92.9234 52.52 92.6504 52.5713 92.3984 52.674C92.1464 52.772 91.927 52.9143 91.7404 53.101C91.5584 53.283 91.4137 53.4977 91.3064 53.745C91.2037 53.9877 91.1524 54.256 91.1524 54.55C91.1524 54.8393 91.2037 55.1077 91.3064 55.355C91.4137 55.6023 91.5584 55.8193 91.7404 56.006C91.927 56.188 92.1464 56.3303 92.3984 56.433C92.6504 56.531 92.9234 56.58 93.2174 56.58ZM98.5575 57V52.1H100.391C100.807 52.1 101.164 52.1677 101.462 52.303C101.761 52.4337 101.99 52.625 102.148 52.877C102.312 53.1243 102.393 53.4253 102.393 53.78C102.393 54.1253 102.312 54.424 102.148 54.676C101.99 54.9233 101.761 55.1147 101.462 55.25C101.164 55.3807 100.807 55.446 100.391 55.446H98.8445L99.0755 55.208V57H98.5575ZM101.903 57L100.643 55.222H101.203L102.47 57H101.903ZM99.0755 55.25L98.8445 55.005H100.377C100.867 55.005 101.238 54.8977 101.49 54.683C101.747 54.4683 101.875 54.1673 101.875 53.78C101.875 53.388 101.747 53.0847 101.49 52.87C101.238 52.6553 100.867 52.548 100.377 52.548H98.8445L99.0755 52.303V55.25Z" fill="black"/>
<path d="M16.0273 31.5547L15.7109 31.625C15.8047 31.7656 15.9453 31.8535 16.1328 31.8887C16.2969 31.9238 16.4492 31.9883 16.5898 32.082C16.6836 32.1055 16.7656 32.123 16.8359 32.1348C16.918 32.1465 16.9824 32.1582 17.0293 32.1699L17.3633 32.2227C17.5273 32.3867 17.6211 32.4688 17.6445 32.4688C17.6562 32.4688 17.6562 32.4922 17.6445 32.5391C17.9492 32.8203 18.2305 33.1367 18.4883 33.4883C18.5352 33.5586 18.5762 33.6816 18.6113 33.8574C18.6465 34.0449 18.6875 34.1914 18.7344 34.2969C18.7695 34.3789 18.7988 34.4961 18.8223 34.6484L18.875 35C18.9219 35.3633 18.8984 35.7266 18.8047 36.0898C18.7109 36.4414 18.6406 36.7695 18.5938 37.0742C18.4766 37.2266 18.418 37.3906 18.418 37.5664C18.418 37.7539 18.3945 37.918 18.3477 38.0586C18.3359 38.1055 18.3066 38.1758 18.2598 38.2695C18.2129 38.3516 18.1836 38.4336 18.1719 38.5156C18.1016 38.8555 17.9902 39.1426 17.8379 39.377C17.7559 39.4941 17.6797 39.6172 17.6094 39.7461C17.5508 39.875 17.4922 40.0039 17.4336 40.1328C17.4102 40.2969 17.375 40.4492 17.3281 40.5898C17.2695 40.7305 17.2344 40.8594 17.2227 40.9766C17.1992 41.0703 17.1465 41.1523 17.0645 41.2227C16.9707 41.293 16.9531 41.375 17.0117 41.4688C16.8242 41.5508 16.7305 41.6914 16.7305 41.8906C16.6602 41.9609 16.5957 42.0137 16.5371 42.0488C16.4668 42.0957 16.4023 42.1836 16.3438 42.3125C16.0508 42.5117 15.834 42.6816 15.6934 42.8223C15.6465 42.8691 15.5938 42.9219 15.5352 42.9805C15.4766 43.0273 15.418 43.0742 15.3594 43.1211C15.2773 43.168 15.1895 43.2383 15.0957 43.332C15.0137 43.4141 14.9258 43.4844 14.832 43.543C14.7969 43.5664 14.7617 43.5898 14.7266 43.6133C14.6914 43.6367 14.6504 43.6602 14.6035 43.6836C14.5566 43.707 14.5156 43.7305 14.4805 43.7539C14.4453 43.7773 14.4102 43.8008 14.375 43.8242C14.2109 43.9414 14.0469 44.0527 13.8828 44.1582C13.7188 44.2637 13.543 44.375 13.3555 44.4922C13.2148 44.5625 13.0918 44.6328 12.9863 44.7031C12.8926 44.7617 12.7812 44.8203 12.6523 44.8789C12.5234 44.9375 12.3887 44.9727 12.248 44.9844C12.1074 44.9961 11.9727 45.0312 11.8438 45.0898C11.375 45.1602 10.918 45.125 10.4727 44.9844C10.0273 44.8438 9.64062 44.6914 9.3125 44.5273C9.04297 44.3984 8.75586 44.293 8.45117 44.2109C8.12305 44.1172 7.84766 43.9766 7.625 43.7891C7.25 43.4844 6.98047 43.0918 6.81641 42.6113C6.65234 42.1191 6.44141 41.668 6.18359 41.2578C6.20703 41.082 6.17773 40.9531 6.0957 40.8711C6.02539 40.8008 5.94922 40.6953 5.86719 40.5547C5.83203 40.4727 5.7793 40.373 5.70898 40.2559C5.67383 40.1973 5.62109 40.1211 5.55078 40.0273C5.50391 39.8516 5.46289 39.7168 5.42773 39.623C5.4043 39.5176 5.38672 39.4531 5.375 39.4297C5.08203 39.4883 4.89453 39.6465 4.8125 39.9043C4.71875 40.1738 4.60156 40.4258 4.46094 40.6602C4.4375 40.8008 4.39648 40.9238 4.33789 41.0293C4.2793 41.1348 4.21484 41.2461 4.14453 41.3633C4.09766 41.4688 4.07422 41.5742 4.07422 41.6797C4.07422 41.7617 4.02734 41.832 3.93359 41.8906C3.64062 41.9141 3.48828 41.9844 3.47656 42.1016C3.46484 42.2188 3.39453 42.2656 3.26562 42.2422C3.28906 42.4062 3.25391 42.5527 3.16016 42.6816C3.06641 42.8223 3.04297 42.9688 3.08984 43.1211C3.07812 43.2148 3.03711 43.3086 2.9668 43.4023C2.9082 43.4844 2.85547 43.5781 2.80859 43.6836C2.64453 43.7539 2.42773 43.8125 2.1582 43.8594C1.88867 43.9062 1.69531 43.8477 1.57812 43.6836C1.13281 43.5898 0.910156 43.4258 0.910156 43.1914C0.910156 43.1094 0.939453 43.0391 0.998047 42.9805C1.05664 42.9219 1.0625 42.8398 1.01562 42.7344C1.15625 42.3945 1.35547 42.0605 1.61328 41.7324C1.84766 41.416 2.03516 41.082 2.17578 40.7305C2.26953 40.5664 2.36328 40.4023 2.45703 40.2383C2.55078 40.0625 2.63867 39.8926 2.7207 39.7285C2.81445 39.5645 2.90234 39.4004 2.98438 39.2363C3.07812 39.0605 3.17188 38.8906 3.26562 38.7266C3.45312 38.3281 3.65234 37.9648 3.86328 37.6367C3.96875 37.4727 4.06836 37.3027 4.16211 37.127C4.25586 36.9395 4.34375 36.7461 4.42578 36.5469C4.50781 36.3711 4.51953 36.2188 4.46094 36.0898C4.69531 35.3984 4.97656 34.7656 5.30469 34.1914C5.64453 33.6055 5.96094 33.0078 6.25391 32.3984C6.38281 31.9531 6.54688 31.5488 6.74609 31.1855C6.98047 30.7637 7.16797 30.3594 7.30859 29.9727L7.99414 28.6719C8.08789 28.4844 8.1875 28.2969 8.29297 28.1094C8.39844 27.9102 8.50391 27.7109 8.60938 27.5117C8.78516 27.2891 8.89648 27.084 8.94336 26.8965C8.99023 26.6855 9.08984 26.5156 9.24219 26.3867C9.30078 26.2578 9.35352 26.1523 9.40039 26.0703C9.45898 25.9766 9.51172 25.8711 9.55859 25.7539C9.74609 25.3086 9.92188 24.9629 10.0859 24.7168C10.25 24.4824 10.3555 24.2422 10.4023 23.9961C10.5195 23.8789 10.6309 23.7207 10.7363 23.5215C10.8418 23.3223 10.9414 23.1289 11.0352 22.9414C11.0586 22.8828 11.082 22.8184 11.1055 22.748C11.1406 22.6777 11.1816 22.6016 11.2285 22.5195C11.2988 22.3906 11.375 22.2148 11.457 21.9922C11.5391 21.8633 11.5977 21.7344 11.6328 21.6055C11.75 21.4883 11.832 21.3535 11.8789 21.2012C11.9258 21.0605 11.9961 20.9258 12.0898 20.7969C11.9258 20.6328 11.7266 20.5977 11.4922 20.6914C11.2578 20.7852 11.0352 20.8906 10.8242 21.0078C10.4258 21.1719 10.0508 21.3477 9.69922 21.5352C9.34766 21.7227 9.00781 21.9102 8.67969 22.0977C8.35156 22.2852 8.00586 22.4141 7.64258 22.4844L6.64062 22.6953C6.45312 22.5664 6.33008 22.5488 6.27148 22.6426C6.22461 22.7246 6.13672 22.7305 6.00781 22.6602C5.96094 22.6602 5.9082 22.6777 5.84961 22.7129C5.80273 22.748 5.71484 22.7656 5.58594 22.7656C5.51562 22.6367 5.5332 22.5488 5.63867 22.502C5.74414 22.4434 5.80859 22.3672 5.83203 22.2734C6.38281 21.9336 6.94531 21.6348 7.51953 21.377C8.10547 21.1074 8.66797 20.8086 9.20703 20.4805C9.5 20.3047 9.77539 20.1465 10.0332 20.0059C10.291 19.8652 10.5312 19.7422 10.7539 19.6367C11.2461 19.4023 11.6914 19.1562 12.0898 18.8984C12.3594 18.8047 12.6172 18.7109 12.8633 18.6172C13.1211 18.5117 13.3613 18.4004 13.584 18.2832C14.0176 18.0723 14.5508 17.9375 15.1836 17.8789C15.4531 17.7148 15.7461 17.6504 16.0625 17.6855C16.4023 17.7207 16.707 17.6797 16.9766 17.5625C17.0703 17.5625 17.1758 17.5625 17.293 17.5625C17.4102 17.5625 17.5332 17.5566 17.6621 17.5449C17.791 17.5332 17.9199 17.5332 18.0488 17.5449C18.1777 17.5449 18.3008 17.5508 18.418 17.5625C18.957 17.5859 19.373 17.6094 19.666 17.6328C19.959 17.6562 20.2344 17.7031 20.4922 17.7734C20.5391 17.7852 20.5859 17.7969 20.6328 17.8086C20.6914 17.8203 20.7441 17.832 20.791 17.8438C20.8496 17.8555 20.9023 17.8672 20.9492 17.8789C20.9961 17.8906 21.043 17.9023 21.0898 17.9141C21.2188 17.9609 21.3477 18.0078 21.4766 18.0547C21.6172 18.0898 21.752 18.1191 21.8809 18.1426C22.1504 18.1895 22.3789 18.2773 22.5664 18.4062C22.918 18.7109 23.1816 18.9629 23.3574 19.1621C23.5332 19.3613 23.6562 19.6016 23.7266 19.8828C23.8672 20.2227 23.9961 20.5156 24.1133 20.7617C24.2422 21.0195 24.3125 21.3008 24.3242 21.6055C24.3477 21.7695 24.3535 21.8984 24.3418 21.9922C24.3301 22.0625 24.3242 22.1387 24.3242 22.2207C24.3242 22.291 24.3242 22.3672 24.3242 22.4492C24.3125 22.6602 24.3125 22.877 24.3242 23.0996C24.3359 23.3223 24.3359 23.5625 24.3242 23.8203C24.2773 24.3594 24.125 24.9102 23.8672 25.4727C23.75 25.7188 23.6738 25.9766 23.6387 26.2461C23.6035 26.4922 23.5039 26.7266 23.3398 26.9492L23.0059 27.5645C22.959 27.6465 22.9121 27.7285 22.8652 27.8105C22.8301 27.8809 22.7891 27.957 22.7422 28.0391L22.584 28.1797C22.5137 28.25 22.4727 28.3203 22.4609 28.3906C22.168 28.625 21.9219 28.8418 21.7227 29.041C21.5 29.2637 21.2188 29.4453 20.8789 29.5859C20.6445 29.8203 20.3809 30.0371 20.0879 30.2363C19.7949 30.4355 19.5078 30.6289 19.2266 30.8164C19.1328 30.8867 19.0566 30.9395 18.998 30.9746C18.8809 31.0449 18.7695 31.0859 18.6641 31.0977C18.4766 31.1445 18.3184 31.1797 18.1895 31.2031C18.0488 31.2266 17.8789 31.2617 17.6797 31.3086C17.3984 31.332 17.1172 31.3672 16.8359 31.4141C16.5547 31.4609 16.2852 31.5078 16.0273 31.5547ZM13.6367 30.3242V30.2188C13.9766 30.0781 14.3047 29.9316 14.6211 29.7793C14.7852 29.6973 14.9492 29.627 15.1133 29.5684C15.2773 29.498 15.4414 29.4336 15.6055 29.375C15.793 29.3281 15.9688 29.2812 16.1328 29.2344C16.2969 29.1875 16.4492 29.1289 16.5898 29.0586L17.1172 28.7422C17.1641 28.7188 17.2109 28.6953 17.2578 28.6719C17.3047 28.6367 17.3516 28.6016 17.3984 28.5664C17.5625 28.4844 17.6973 28.3906 17.8027 28.2852C17.9082 28.1797 18.0312 28.0859 18.1719 28.0039C18.2422 27.9453 18.3125 27.8926 18.3828 27.8457C18.4531 27.7988 18.5176 27.752 18.5762 27.7051C18.6348 27.6582 18.6992 27.6113 18.7695 27.5645C18.8398 27.5176 18.9102 27.4648 18.9805 27.4062C19.0742 27.3242 19.1738 27.2598 19.2793 27.2129C19.3848 27.166 19.4844 27.1016 19.5781 27.0195C19.7539 26.8438 19.8887 26.668 19.9824 26.4922C20.0762 26.3164 20.2109 26.1523 20.3867 26C20.5039 25.7656 20.6094 25.5312 20.7031 25.2969C20.7969 25.0625 20.8789 24.8164 20.9492 24.5586L21.1602 23.9434C21.1953 23.8496 21.2246 23.7559 21.248 23.6621C21.2832 23.5566 21.3125 23.457 21.3359 23.3633C21.3477 23.1406 21.377 22.9766 21.4238 22.8711C21.459 22.7891 21.4648 22.6953 21.4414 22.5898C21.4414 22.4961 21.418 22.4023 21.3711 22.3086C21.3242 22.2148 21.2773 22.1328 21.2305 22.0625C21.1133 21.793 20.9727 21.5469 20.8086 21.3242C20.668 21.1133 20.5156 20.8789 20.3516 20.6211C20.1406 20.457 19.8887 20.2988 19.5957 20.1465C19.3027 19.9941 18.9805 19.9766 18.6289 20.0938C18.582 20.0469 18.5 20.0176 18.3828 20.0059C18.2656 19.9941 18.1836 20.0117 18.1367 20.0586C17.8789 20.0234 17.5391 20.0352 17.1172 20.0938C16.707 20.1523 16.4023 20.2109 16.2031 20.2695C16.168 20.3047 16.1211 20.3691 16.0625 20.4629C16.0391 20.5098 16.0156 20.5508 15.9922 20.5859C15.9688 20.6211 15.9453 20.6562 15.9219 20.6914C15.8047 20.9023 15.6934 21.0488 15.5879 21.1309C15.4824 21.2246 15.3711 21.3594 15.2539 21.5352C15.1602 21.6523 15.0781 21.7578 15.0078 21.8516C14.9375 21.9453 14.8789 22.0508 14.832 22.168C14.7148 22.2148 14.6387 22.2734 14.6035 22.3438C14.5566 22.4375 14.5156 22.5078 14.4805 22.5547C14.3516 22.6133 14.2812 22.707 14.2695 22.8359C14.2578 22.9648 14.1992 23.0586 14.0938 23.1172C13.9062 23.3984 13.7715 23.6387 13.6895 23.8379C13.6074 24.0371 13.5078 24.3008 13.3906 24.6289C13.2969 24.8047 13.209 24.9746 13.127 25.1387C13.0449 25.3027 12.9629 25.4668 12.8809 25.6309L12.4062 26.5977C12.3828 26.668 12.3594 26.7383 12.3359 26.8086C12.3125 26.8672 12.2891 26.9258 12.2656 26.9844L12.125 27.3359C12.0781 27.418 11.9961 27.5293 11.8789 27.6699C11.832 27.7168 11.7852 27.7695 11.7383 27.8281C11.6914 27.8867 11.6445 27.9453 11.5977 28.0039C11.3398 28.4023 11.123 28.8008 10.9473 29.1992C10.7832 29.5742 10.5781 29.9609 10.332 30.3594C10.0742 30.7461 9.82812 31.1328 9.59375 31.5195C9.35938 31.9062 9.13672 32.293 8.92578 32.6797C8.80859 32.7617 8.75586 32.8672 8.76758 32.9961C8.7793 33.1016 8.71484 33.1836 8.57422 33.2422C8.48047 33.3711 8.39258 33.4883 8.31055 33.5938C8.24023 33.6875 8.17578 33.7695 8.11719 33.8398C8.07031 33.9336 8.02344 34.0273 7.97656 34.1211C7.92969 34.2148 7.88281 34.3203 7.83594 34.4375C7.80078 34.4961 7.76562 34.5605 7.73047 34.6309C7.69531 34.6895 7.6543 34.748 7.60742 34.8066C7.54883 34.8887 7.48438 35.0117 7.41406 35.1758C7.28516 35.4688 7.15625 35.7207 7.02734 35.9316L6.64062 36.6172C6.61719 36.6641 6.59375 36.7109 6.57031 36.7578C6.54688 36.793 6.52344 36.8281 6.5 36.8633L6.35938 37.0742C6.3125 37.25 6.27734 37.3496 6.25391 37.373C6.21875 37.4082 6.19531 37.4375 6.18359 37.4609C6.16016 37.5898 6.17188 37.6895 6.21875 37.7598L6.35938 38.0234C6.38281 38.1172 6.39453 38.1816 6.39453 38.2168C6.39453 38.252 6.40625 38.3164 6.42969 38.4102C6.47656 38.5391 6.51758 38.6504 6.55273 38.7441C6.59961 38.8262 6.63477 38.8965 6.6582 38.9551C6.68164 39.002 6.71094 39.0664 6.74609 39.1484C6.79297 39.2305 6.83984 39.3242 6.88672 39.4297C6.93359 39.5117 6.96875 39.5938 6.99219 39.6758C7.01562 39.7461 7.05078 39.8164 7.09766 39.8867C7.12109 39.9336 7.14453 39.9805 7.16797 40.0273C7.19141 40.0625 7.20898 40.0977 7.2207 40.1328L7.34375 40.4141C7.48438 40.6953 7.66016 40.9414 7.87109 41.1523C8.08203 41.3516 8.28125 41.5859 8.46875 41.8555C8.66797 41.9961 8.9082 42.0547 9.18945 42.0312C9.45898 42.0078 9.72266 42.0078 9.98047 42.0312C10.2148 41.9375 10.4551 41.9199 10.7012 41.9785C10.9707 42.0371 11.2109 42.0664 11.4219 42.0664C11.4922 42.0547 11.5566 42.0254 11.6152 41.9785C11.6738 41.9434 11.7383 41.9492 11.8086 41.9961L12.248 41.7852C12.3301 41.75 12.4062 41.7148 12.4766 41.6797C12.5469 41.6445 12.6172 41.6094 12.6875 41.5742C12.793 41.4805 12.8984 41.3926 13.0039 41.3105C13.1094 41.2285 13.2148 41.1465 13.3203 41.0645C13.5312 40.9004 13.707 40.707 13.8477 40.4844C13.8828 40.4492 13.9238 40.3965 13.9707 40.3262C13.9941 40.3027 14.0117 40.2734 14.0234 40.2383C14.0469 40.2031 14.0703 40.168 14.0938 40.1328C14.1875 40.0156 14.2637 39.8926 14.3223 39.7637C14.3809 39.6348 14.4336 39.5 14.4805 39.3594C14.7383 39.1016 14.9375 38.8496 15.0781 38.6035C15.2305 38.3457 15.3945 38.1172 15.5703 37.918C15.6289 37.7188 15.7227 37.5547 15.8516 37.4258C16.0039 37.2734 16.0859 37.0859 16.0977 36.8633C16.0977 36.418 16.0625 36.084 15.9922 35.8613C15.9219 35.6387 15.8516 35.4219 15.7812 35.2109C15.7344 35.1289 15.7109 35.0293 15.7109 34.9121C15.7109 34.7949 15.6875 34.6953 15.6406 34.6133C15.5469 34.4727 15.4648 34.3438 15.3945 34.2266C15.3242 34.0977 15.2598 33.9863 15.2012 33.8926C15.0957 33.6934 14.9727 33.5352 14.832 33.418C14.75 33.3711 14.6504 33.3477 14.5332 33.3477C14.416 33.3477 14.3164 33.3242 14.2344 33.2773C13.9766 33.1836 13.7188 33.0898 13.4609 32.9961C13.2031 32.9023 12.9219 32.832 12.6172 32.7852C12.5 32.7148 12.3945 32.6445 12.3008 32.5742C12.2305 32.5156 12.125 32.457 11.9844 32.3984C11.8906 32.2461 11.7852 32.1641 11.668 32.1523C11.668 32.0117 11.6094 31.918 11.4922 31.8711C11.375 31.8242 11.293 31.7422 11.2461 31.625C11.1992 31.5195 11.1758 31.3906 11.1758 31.2383C11.1758 31.0977 11.1406 30.9688 11.0703 30.8516C11.1992 30.7812 11.3398 30.752 11.4922 30.7637C11.6562 30.7754 11.7969 30.7227 11.9141 30.6055C12.0898 30.6055 12.2539 30.5762 12.4062 30.5176C12.5586 30.459 12.7227 30.4062 12.8984 30.3594C13.0508 30.3359 13.1797 30.3418 13.2852 30.377C13.4023 30.4121 13.5195 30.3945 13.6367 30.3242ZM31.6719 41.2227C31.7656 41.0938 31.8359 41.0059 31.8828 40.959C31.9414 40.9004 32.0117 40.8477 32.0938 40.8008C32.3867 40.1797 32.7676 39.6875 33.2363 39.3242C33.7168 38.9609 34.2266 38.5508 34.7656 38.0938C34.8828 38.0938 34.9824 38.0527 35.0645 37.9707C35.1465 37.8887 35.2461 37.8242 35.3633 37.7773C35.5039 37.6484 35.6387 37.543 35.7676 37.4609C35.873 37.3906 35.9609 37.2969 36.0312 37.1797C36.3008 37.0508 36.5527 36.875 36.7871 36.6523C37.0332 36.4297 37.2734 36.2305 37.5078 36.0547C37.6953 36.0078 37.8945 36.0312 38.1055 36.125C38.1992 36.3125 38.2344 36.5117 38.2109 36.7227C38.1875 36.9336 38.0703 37.0508 37.8594 37.0742C37.7891 37.1445 37.7129 37.2148 37.6309 37.2852C37.5488 37.3555 37.4492 37.4023 37.332 37.4258C37.0977 37.4727 36.9453 37.5664 36.875 37.707C36.8633 37.9297 36.834 38.0645 36.7871 38.1113C36.7402 38.1582 36.7109 38.1992 36.6992 38.2344C36.4414 38.668 36.1543 39.043 35.8379 39.3594C35.5215 39.6641 35.2227 40.0391 34.9414 40.4844C34.8125 40.5664 34.707 40.6953 34.625 40.8711C34.2031 41.1055 33.8926 41.2871 33.6934 41.416C33.4941 41.5449 33.3125 41.7031 33.1484 41.8906C33.0078 41.9727 32.9375 42.043 32.9375 42.1016C32.9375 42.1484 32.9141 42.1953 32.8672 42.2422C32.6328 42.4414 32.498 42.5879 32.4629 42.6816C32.4277 42.7754 32.375 42.8516 32.3047 42.9102C32.1875 42.9922 32.082 43.0742 31.9883 43.1562C31.9062 43.2266 31.8359 43.291 31.7773 43.3496C31.6367 43.4902 31.4844 43.5898 31.3203 43.6484C31.1211 43.8125 30.8281 44.0059 30.4414 44.2285C30.0547 44.4629 29.6562 44.6387 29.2461 44.7559C28.8359 44.8848 28.4961 44.8906 28.2266 44.7734L27.9805 44.5801C27.9336 44.5449 27.8516 44.4922 27.7344 44.4219C27.582 44.2344 27.4121 44.0762 27.2246 43.9473C27.0605 43.8301 26.9023 43.6602 26.75 43.4375C26.5742 43.1914 26.4629 42.9395 26.416 42.6816C26.3691 42.4121 26.2812 42.1484 26.1523 41.8906C26.0938 41.2812 26.1406 40.7773 26.293 40.3789C26.4219 39.9805 26.5625 39.6113 26.7148 39.2715C26.8672 38.9199 27.0371 38.5977 27.2246 38.3047C27.5879 37.7422 27.8398 37.0742 27.9805 36.3008C27.7227 36.043 27.5762 35.8027 27.541 35.5801C27.5293 35.4629 27.5059 35.3281 27.4707 35.1758C27.4355 35.0234 27.3945 34.8477 27.3477 34.6484C26.7383 35.0469 26.1758 35.5508 25.6602 36.1602C25.1445 36.7695 24.6875 37.3906 24.2891 38.0234L23.8672 38.7969C23.75 39.0195 23.6094 39.2305 23.4453 39.4297C23.3281 39.5469 23.2695 39.623 23.2695 39.6582C23.2695 39.6934 23.2461 39.7344 23.1992 39.7812C23.1055 39.8984 23.0293 39.998 22.9707 40.0801C22.9121 40.1621 22.8711 40.2266 22.8477 40.2734C22.8242 40.3203 22.8008 40.3672 22.7773 40.4141C22.7539 40.4492 22.7305 40.4844 22.707 40.5195C22.6367 40.6133 22.5781 40.6836 22.5312 40.7305C22.4844 40.7773 22.4258 40.8477 22.3555 40.9414C22.0273 41.4102 21.7285 41.8496 21.459 42.2598L20.6328 43.5078C20.5039 43.707 20.3984 43.9062 20.3164 44.1055C20.2344 44.3164 20.1172 44.5039 19.9648 44.668C19.7305 44.6914 19.5957 44.6562 19.5605 44.5625C19.5254 44.4688 19.5312 44.3867 19.5781 44.3164C19.2969 44.1289 19.1387 43.7656 19.1035 43.2266C19.0684 42.6875 19.1211 42.2539 19.2617 41.9258C19.1914 41.7148 19.168 41.5977 19.1914 41.5742C19.2148 41.5508 19.2266 41.5156 19.2266 41.4688C19.5312 41.0469 19.8418 40.625 20.1582 40.2031C20.4746 39.7812 20.8086 39.3828 21.1602 39.0078C21.2188 38.9258 21.2773 38.8438 21.3359 38.7617C21.3945 38.6797 21.4473 38.5977 21.4941 38.5156C21.6113 38.3398 21.7344 38.1875 21.8633 38.0586C22.0625 37.7188 22.3027 37.3672 22.584 37.0039C22.8652 36.6523 23.0938 36.2891 23.2695 35.9141C23.3984 35.7852 23.4863 35.6562 23.5332 35.5273C23.5918 35.3867 23.6914 35.2695 23.832 35.1758C23.9141 35.0352 23.9844 34.9004 24.043 34.7715C24.1133 34.6309 24.1719 34.4961 24.2188 34.3672C24.2891 34.1445 24.418 33.9219 24.6055 33.6992C24.6523 33.5352 24.7109 33.4062 24.7812 33.3125C24.8516 33.2188 24.9453 33.1133 25.0625 32.9961C25.0742 32.8906 25.1387 32.791 25.2559 32.6973C25.373 32.6035 25.4609 32.5039 25.5195 32.3984C25.5781 32.2344 25.6367 32.1289 25.6953 32.082C25.7656 32.0234 25.8008 31.9414 25.8008 31.8359C25.918 31.7188 26.0352 31.5957 26.1523 31.4668C26.2695 31.3379 26.375 31.1797 26.4688 30.9922C26.7969 30.8047 27.0254 30.7109 27.1543 30.7109C27.2832 30.7109 27.3828 30.6523 27.4531 30.5352C27.5469 30.5352 27.6465 30.5352 27.752 30.5352C27.8691 30.5352 27.9922 30.5293 28.1211 30.5176C28.3906 30.4941 28.5312 30.582 28.543 30.7812C28.5547 30.8281 28.5547 30.8867 28.543 30.957C28.5312 30.9922 28.5195 31.0273 28.5078 31.0625C28.4961 31.0977 28.4844 31.1328 28.4727 31.168C28.4844 31.3789 28.4844 31.4902 28.4727 31.502C28.4492 31.5254 28.4375 31.543 28.4375 31.5547C28.4141 31.6484 28.4082 31.7305 28.4199 31.8008C28.4316 31.8594 28.4375 31.9648 28.4375 32.1172C28.4258 32.2109 28.4141 32.293 28.4023 32.3633C28.3906 32.4336 28.3789 32.498 28.3672 32.5566C28.3438 32.6738 28.3906 32.8086 28.5078 32.9609C28.5664 33.043 28.6367 33.1074 28.7188 33.1543C28.8008 33.2012 28.8828 33.2773 28.9648 33.3828C29.0234 33.4414 29.0645 33.5117 29.0879 33.5938C29.1113 33.6758 29.1523 33.7461 29.2109 33.8047C29.2578 33.8633 29.3281 33.9219 29.4219 33.9805C29.5156 34.0391 29.5859 34.1211 29.6328 34.2266C29.7617 34.3203 29.8027 34.3789 29.7559 34.4023C29.7207 34.4258 29.7734 34.4727 29.9141 34.543C30.1836 34.8828 30.3828 35.2461 30.5117 35.6328C30.6641 35.9258 30.793 36.1602 30.8984 36.3359C31.0156 36.5234 31.0156 36.7109 30.8984 36.8984C30.8281 36.9688 30.7461 37.1094 30.6523 37.3203C30.5469 37.4258 30.4531 37.543 30.3711 37.6719C30.3242 37.7539 30.2891 37.8418 30.2656 37.9355C30.2539 38.0176 30.2188 38.0938 30.1602 38.1641C29.9492 38.5039 29.7324 38.8086 29.5098 39.0781C29.2871 39.3477 29.0938 39.6406 28.9297 39.957C28.9414 40.625 29.0703 41.1172 29.3164 41.4336C29.5977 41.7617 29.7734 41.9258 29.8438 41.9258C29.9961 41.9492 30.1602 41.9023 30.3359 41.7852L30.793 41.5039C30.8398 41.4805 30.8809 41.457 30.916 41.4336C30.9629 41.4102 31.0039 41.3867 31.0391 41.3633C31.1094 41.3164 31.1914 41.2812 31.2852 41.2578C31.5312 41.1758 31.6484 41.1465 31.6367 41.1699C31.625 41.2051 31.6367 41.2227 31.6719 41.2227ZM43.9766 43.7539L43.7656 42.9805C43.625 42.6875 43.6016 42.2305 43.6953 41.6094L43.8184 40.9941C43.8418 40.9121 43.8594 40.8066 43.8711 40.6777C43.8945 40.5488 43.918 40.3906 43.9414 40.2031C43.9648 40.0273 43.9883 39.8516 44.0117 39.6758C44.0469 39.4883 44.0879 39.3008 44.1348 39.1133C44.1816 38.9258 44.2168 38.7383 44.2402 38.5508C44.2754 38.3633 44.3047 38.1758 44.3281 37.9883C44.1523 38.2578 43.9824 38.5332 43.8184 38.8145C43.6543 39.0957 43.4961 39.3887 43.3438 39.6934C43.0508 40.2676 42.6875 40.7656 42.2539 41.1875C42.1602 41.4688 42.043 41.6504 41.9023 41.7324C41.7617 41.8027 41.6211 41.873 41.4805 41.9434C41.3398 42.0137 41.2227 42.1836 41.1289 42.4531C41.0117 42.5703 40.9004 42.6934 40.7949 42.8223C40.6895 42.9512 40.6133 43.1094 40.5664 43.2969C40.4492 43.3438 40.332 43.4375 40.2148 43.5781C39.9922 43.8008 39.8516 43.918 39.793 43.9297C39.7344 43.9414 39.6758 43.9766 39.6172 44.0352C39.3828 44.2227 39.1777 44.3633 39.002 44.457C38.8262 44.5508 38.6211 44.6094 38.3867 44.6328C38.1289 44.6797 37.7949 44.7148 37.3848 44.7383C37.1855 44.75 37.0039 44.7617 36.8398 44.7734C36.6758 44.7852 36.5352 44.7969 36.418 44.8086C36.2656 44.6914 36.1484 44.6211 36.0664 44.5977C36.0312 44.5859 35.9785 44.5684 35.9082 44.5449C35.8496 44.5215 35.7734 44.4922 35.6797 44.457C35.3398 44.3164 35.1758 44.252 35.1875 44.2637C35.1758 44.252 35.1582 44.2402 35.1348 44.2285C35.0996 44.2168 35.0586 44.1992 35.0117 44.1758C34.8242 44.0352 34.6953 43.9238 34.625 43.8418C34.5781 43.7832 34.4961 43.6953 34.3789 43.5781C33.9922 42.9805 33.7695 42.207 33.7109 41.2578C33.6875 40.9297 33.7461 40.6016 33.8867 40.2734C34.0273 39.9453 34.1562 39.6523 34.2734 39.3945C34.4141 39.1016 34.5664 38.832 34.7305 38.5859C34.8242 38.4453 34.9121 38.3105 34.9941 38.1816C35.0645 38.0527 35.1289 37.9297 35.1875 37.8125C35.3281 37.5312 35.3516 37.3496 35.2578 37.2676C35.1758 37.1738 35.1992 36.9922 35.3281 36.7227C35.3867 36.5352 35.457 36.3711 35.5391 36.2305L35.8555 35.668C36.0664 35.293 36.2891 34.959 36.5234 34.666C36.7344 34.4082 36.9102 34.0625 37.0508 33.6289C37.168 33.3008 37.3262 33.0488 37.5254 32.873C37.7246 32.6973 37.9648 32.5391 38.2461 32.3984C38.3633 32.4453 38.5332 32.4277 38.7559 32.3457C38.9785 32.2637 39.1484 32.1758 39.2656 32.082C39.4297 32.082 39.5586 32.0352 39.6523 31.9414C39.9102 31.8945 40.0449 31.8945 40.0566 31.9414C40.0684 31.9883 40.0977 32.0117 40.1445 32.0117C40.1914 32.0234 40.2559 32.0234 40.3379 32.0117C40.4199 32 40.4844 32 40.5312 32.0117C40.6133 32.2578 40.6719 32.4102 40.707 32.4688C40.7539 32.5273 40.7773 32.5859 40.7773 32.6445C40.7773 32.7148 40.7715 32.8086 40.7598 32.9258C40.748 33.043 40.7305 33.125 40.707 33.1719C40.5781 33.3477 40.502 33.459 40.4785 33.5059L40.4258 33.6289C40.3555 33.7227 40.2734 33.834 40.1797 33.9629C40.0977 34.0801 40.0039 34.2207 39.8984 34.3848L39.3359 35.2109C39.207 35.4102 39.0898 35.5391 38.9844 35.5977C38.8555 35.668 38.75 35.7969 38.668 35.9844C38.6211 36.0664 38.5859 36.1543 38.5625 36.248C38.5508 36.3301 38.5156 36.418 38.457 36.5117C38.1875 37.0742 37.8828 37.6426 37.543 38.2168C37.3672 38.5098 37.1973 38.8027 37.0332 39.0957C36.8809 39.377 36.7344 39.6523 36.5938 39.9219C36.582 40.0156 36.5645 40.1094 36.541 40.2031C36.5176 40.2852 36.4941 40.373 36.4707 40.4668C36.4121 40.666 36.3828 40.8359 36.3828 40.9766C36.3828 41.0117 36.3711 41.1934 36.3477 41.5215C36.3242 41.8496 36.3359 42.043 36.3828 42.1016C36.5234 42.3008 36.6055 42.3887 36.6289 42.3652C36.6523 42.3418 36.6758 42.3477 36.6992 42.3828C36.793 42.6172 36.8574 42.752 36.8926 42.7871C36.9277 42.8223 37.0039 42.8633 37.1211 42.9102C37.2148 42.9336 37.3496 42.916 37.5254 42.8574C37.7012 42.7988 37.8359 42.7461 37.9297 42.6992C38.2109 42.5586 38.4219 42.4121 38.5625 42.2598C38.7031 42.1074 38.8438 41.9492 38.9844 41.7852C39.3359 41.3633 39.7109 40.8711 40.1094 40.3086C40.5078 39.7461 40.8828 39.2539 41.2344 38.832C41.3633 38.5508 41.5332 38.2695 41.7441 37.9883C41.9668 37.6836 42.1367 37.4141 42.2539 37.1797L42.7461 36.2305C42.8164 36.1016 42.8926 35.9609 42.9746 35.8086C43.0566 35.6562 43.1445 35.4922 43.2383 35.3164C43.3789 35.1172 43.5254 34.9355 43.6777 34.7715C43.8301 34.6074 43.9414 34.3672 44.0117 34.0508C44.0703 33.8867 44.1582 33.7285 44.2754 33.5762C44.334 33.4941 44.3867 33.4238 44.4336 33.3652C44.4922 33.2949 44.5391 33.2305 44.5742 33.1719C44.75 33.0078 44.8613 32.8789 44.9082 32.7852C44.9551 32.6914 45.0312 32.6094 45.1367 32.5391C45.3945 32.4688 45.5938 32.416 45.7344 32.3809C45.875 32.3457 46.0508 32.3516 46.2617 32.3984C46.4492 32.2812 46.6484 32.2227 46.8594 32.2227C46.9648 32.2227 47.0645 32.2285 47.1582 32.2402C47.2637 32.2402 47.3633 32.2461 47.457 32.2578C47.457 32.375 47.4863 32.4512 47.5449 32.4863C47.6035 32.5215 47.6328 32.5859 47.6328 32.6797C47.7266 32.8906 47.7266 33.1484 47.6328 33.4531C47.5273 33.793 47.4688 34.0977 47.457 34.3672C47.3984 34.6133 47.3105 34.8301 47.1934 35.0176C47.0645 35.2285 46.9648 35.457 46.8945 35.7031C46.8477 35.8789 46.8066 36.0195 46.7715 36.125C46.748 36.2305 46.7305 36.3008 46.7188 36.3359L46.6133 36.7227C46.5664 36.9336 46.5195 37.1387 46.4727 37.3379C46.4258 37.5254 46.3789 37.7129 46.332 37.9004C46.2383 38.2754 46.168 38.6914 46.1211 39.1484C46.1211 39.2656 46.1035 39.3887 46.0684 39.5176C46.0332 39.6348 46.0156 39.7461 46.0156 39.8516C46.0156 39.9688 46.0215 40.1094 46.0332 40.2734C46.0449 40.4375 46.1094 40.543 46.2266 40.5898C46.3555 40.6367 46.4668 40.625 46.5605 40.5547C46.6777 40.4609 46.8008 40.3789 46.9297 40.3086C47.0117 40.25 47.1289 40.1445 47.2812 39.9922C47.4336 39.8398 47.5508 39.7344 47.6328 39.6758C47.75 39.5586 47.8789 39.4648 48.0195 39.3945C48.1602 39.3242 48.2891 39.2305 48.4062 39.1133C48.5938 38.9492 48.7754 38.7852 48.9512 38.6211C49.1387 38.4453 49.3145 38.2695 49.4785 38.0938C49.8301 37.7305 50.1992 37.4375 50.5859 37.2148C50.9609 36.8164 51.3418 36.4473 51.7285 36.1074C52.1152 35.7676 52.5547 35.4805 53.0469 35.2461C53.2344 35.5508 53.2812 35.8027 53.1875 36.002C53.0938 36.2012 52.9766 36.3945 52.8359 36.582C52.7773 36.6406 52.6953 36.6992 52.5898 36.7578C52.4609 36.8281 52.3672 36.8867 52.3086 36.9336L52.1328 37.1094C52.0625 37.1797 52.0039 37.2148 51.957 37.2148C51.957 37.3086 51.9277 37.3848 51.8691 37.4434L51.7109 37.6016C51.5586 37.8359 51.3945 38.0586 51.2188 38.2695C51.0547 38.4688 50.8789 38.6621 50.6914 38.8496C50.5039 39.0371 50.3164 39.2246 50.1289 39.4121C49.9531 39.5879 49.7773 39.7695 49.6016 39.957C49.4375 40.0156 49.3379 40.0918 49.3027 40.1855C49.2676 40.3027 49.1914 40.4023 49.0742 40.4844C49.0273 40.543 48.9805 40.5957 48.9336 40.6426C48.8867 40.6895 48.8398 40.7363 48.793 40.7832C48.7461 40.8301 48.6992 40.877 48.6523 40.9238C48.6055 40.9707 48.5586 41.0234 48.5117 41.082C48.3711 41.2344 48.248 41.3926 48.1426 41.5566C48.0371 41.709 47.8906 41.8555 47.7031 41.9961C47.5859 42.1133 47.498 42.2363 47.4395 42.3652C47.3926 42.4824 47.3047 42.6055 47.1758 42.7344C46.9883 42.9219 46.8535 43.0098 46.7715 42.998C46.7012 42.9863 46.6367 43.0977 46.5781 43.332C46.3906 43.4727 46.2852 43.5723 46.2617 43.6309C46.25 43.6777 46.2148 43.6953 46.1562 43.6836C46.0977 43.707 46.0156 43.7246 45.9102 43.7363C45.793 43.748 45.7344 43.7773 45.7344 43.8242C45.582 43.8945 45.459 43.9648 45.3652 44.0352C45.2715 44.1172 45.1602 44.1641 45.0312 44.1758C44.7266 44.2227 44.5098 44.2051 44.3809 44.123C44.252 44.041 44.1172 43.918 43.9766 43.7539ZM54.2422 38.6562L54.4531 38.832C54.5117 38.9258 54.4941 39.0547 54.4004 39.2188C54.3535 39.3008 54.3125 39.377 54.2773 39.4473C54.2539 39.5176 54.2305 39.582 54.207 39.6406C54.2188 39.6875 54.2305 39.7344 54.2422 39.7812C54.2539 39.8164 54.2656 39.8457 54.2773 39.8691C54.3008 39.9395 54.2891 40.0156 54.2422 40.0977C54.4062 40.2266 54.5117 40.3613 54.5586 40.502C54.6172 40.6895 54.6992 40.8477 54.8047 40.9766C54.9453 41.1289 55.0684 41.2461 55.1738 41.3281C55.3027 41.4102 55.4258 41.5156 55.543 41.6445C55.6719 41.5742 55.7656 41.5391 55.8242 41.5391C55.9062 41.5391 56 41.5156 56.1055 41.4688C56.3047 41.2109 56.4688 40.8828 56.5977 40.4844C56.6211 40.3906 56.6445 40.2852 56.668 40.168C56.6914 40.0508 56.7031 39.9453 56.7031 39.8516C56.6914 39.5469 56.5977 39.2305 56.4219 38.9023C56.2461 38.5625 56.1172 38.2461 56.0352 37.9531C55.9414 37.7539 55.9121 37.543 55.9473 37.3203C55.9824 37.0742 55.9766 36.8633 55.9297 36.6875C55.918 36.5703 55.8828 36.4766 55.8242 36.4062C55.8008 36.3711 55.7773 36.3359 55.7539 36.3008C55.7305 36.2539 55.707 36.207 55.6836 36.1602C55.6367 35.9609 55.6191 35.75 55.6309 35.5273C55.6543 35.293 55.6016 35.0938 55.4727 34.9297C55.332 35.0703 55.1094 35.3398 54.8047 35.7383C54.5 36.125 54.1953 36.5117 53.8906 36.8984C53.5977 37.2852 53.3867 37.543 53.2578 37.6719C53.1992 37.7539 53.1348 37.8359 53.0645 37.918C53.0059 37.9883 52.9414 38.0527 52.8711 38.1113C52.8008 38.1699 52.7305 38.2402 52.6602 38.3223C52.6016 38.3926 52.543 38.4688 52.4844 38.5508C52.1094 39.0195 51.8281 39.3652 51.6406 39.5879C51.4648 39.8105 51.2891 40.0391 51.1133 40.2734C50.9375 40.5078 50.6562 40.8828 50.2695 41.3984C50.1406 41.5859 49.9238 41.8906 49.6191 42.3125C49.3027 42.7344 49.0039 43.1445 48.7227 43.543C48.4297 43.9297 48.2539 44.1875 48.1953 44.3164C48.0547 44.5508 47.873 44.7559 47.6504 44.9316C47.4277 45.1074 47.1641 45.1953 46.8594 45.1953C46.8594 45.1836 46.8359 45.0898 46.7891 44.9141C46.7422 44.75 46.7012 44.5742 46.666 44.3867C46.6191 44.2109 46.5898 44.1172 46.5781 44.1055C46.6484 43.9648 46.7012 43.8242 46.7363 43.6836C46.7715 43.5547 46.8711 43.4258 47.0352 43.2969C47.082 43.1445 47.2168 42.8926 47.4395 42.541C47.6621 42.1777 47.9199 41.791 48.2129 41.3809C48.5059 40.959 48.7812 40.5723 49.0391 40.2207C49.2852 39.8691 49.4492 39.6289 49.5312 39.5C49.6836 39.3477 49.9062 39.084 50.1992 38.709C50.4805 38.334 50.7617 37.959 51.043 37.584C51.3359 37.1973 51.5469 36.9219 51.6758 36.7578C51.7812 36.4414 51.998 36.0488 52.3262 35.5801C52.666 35.0996 53.0234 34.6133 53.3984 34.1211C53.7852 33.6172 54.1016 33.1836 54.3477 32.8203C54.4648 32.6328 54.5645 32.4688 54.6465 32.3281C54.7285 32.1875 54.8164 32.0352 54.9102 31.8711C55.0039 31.7773 55.0859 31.6719 55.1562 31.5547C55.2031 31.3789 55.1797 31.2441 55.0859 31.1504C55.0039 31.0566 54.9688 30.9336 54.9805 30.7812C55.1914 30.3828 55.3965 30.1309 55.5957 30.0254C55.8066 29.9082 56.0117 29.7148 56.2109 29.4453C56.3516 29.3516 56.4629 29.2812 56.5449 29.2344C56.6621 29.1758 56.7734 29.0938 56.8789 28.9883C57.043 28.8242 57.2832 28.7832 57.5996 28.8652C57.9277 28.9355 58.1211 29.0352 58.1797 29.1641C58.1914 29.2344 58.1914 29.3281 58.1797 29.4453C58.168 29.5039 58.1562 29.5625 58.1445 29.6211C58.1328 29.6797 58.1211 29.7383 58.1094 29.7969C58.0859 29.9023 58.0625 30.002 58.0391 30.0957C58.0156 30.1895 57.9922 30.2832 57.9688 30.377C57.9453 30.459 57.9219 30.5527 57.8984 30.6582C57.875 30.752 57.8516 30.8516 57.8281 30.957C57.7812 31.2148 57.7402 31.4609 57.7051 31.6953C57.6699 31.9297 57.7461 32.1523 57.9336 32.3633C57.9102 32.4805 57.916 32.6211 57.9512 32.7852C57.9863 32.9492 58.0273 33.1016 58.0742 33.2422C58.1211 33.9922 58.2559 34.7363 58.4785 35.4746C58.7012 36.2129 58.9414 36.8867 59.1992 37.4961C59.1992 37.6133 59.2168 37.7305 59.252 37.8477C59.2871 37.9648 59.3281 38.082 59.375 38.1992C59.4453 38.9492 59.375 39.6934 59.1641 40.4316C59.0586 40.7949 58.9531 41.1582 58.8477 41.5215C58.7539 41.8848 58.6602 42.2422 58.5664 42.5938C58.4258 42.8281 58.3086 43.0977 58.2148 43.4023C58.1328 43.6719 58.0156 43.8945 57.8633 44.0703C57.7461 44.2578 57.6406 44.4688 57.5469 44.7031C57.4531 44.9375 57.2656 45.125 56.9844 45.2656C56.832 45.3125 56.6738 45.3125 56.5098 45.2656C56.3574 45.2188 56.2109 45.2188 56.0703 45.2656C55.9648 45.2773 55.8594 45.3066 55.7539 45.3535C55.6719 45.3887 55.5781 45.4062 55.4727 45.4062C55.168 45.4648 54.916 45.4355 54.7168 45.3184C54.541 45.2246 54.3008 45.1484 53.9961 45.0898C53.9961 45.0195 53.9609 44.9668 53.8906 44.9316C53.8203 44.8965 53.7617 44.8555 53.7148 44.8086C53.6328 44.457 53.5391 44.1875 53.4336 44C53.3516 43.8359 53.2812 43.6602 53.2227 43.4727C53.1523 43.2031 53.1172 42.9512 53.1172 42.7168C53.1172 42.459 53.0586 42.207 52.9414 41.9609C52.8477 41.75 52.8066 41.6211 52.8184 41.5742C52.8301 41.5273 52.8359 41.457 52.8359 41.3633C52.8359 41.0586 52.8184 40.7246 52.7832 40.3613C52.748 39.9863 52.8945 39.6875 53.2227 39.4648C53.3516 39.3711 53.4395 39.248 53.4863 39.0957C53.5332 38.9668 53.6328 38.832 53.7852 38.6914C53.832 38.6445 53.9082 38.6211 54.0137 38.6211C54.0957 38.6211 54.1719 38.6328 54.2422 38.6562ZM63.3828 41.3281C63.9102 40.8711 64.4082 40.3613 64.877 39.7988C65.1113 39.5293 65.3516 39.2539 65.5977 38.9727C65.8438 38.6914 66.1016 38.4102 66.3711 38.1289C66.4883 38.0117 66.6055 37.8711 66.7227 37.707C66.8398 37.543 66.957 37.3672 67.0742 37.1797C67.168 37.0391 67.2852 36.9043 67.4258 36.7754C67.5781 36.6348 67.6953 36.5117 67.7773 36.4062C67.8477 36.2891 67.9355 36.1953 68.041 36.125C68.0996 36.0898 68.1523 36.0547 68.1992 36.0195C68.2578 35.9727 68.3164 35.9258 68.375 35.8789C68.4922 35.7617 68.5977 35.6621 68.6914 35.5801C68.7852 35.498 68.8906 35.4102 69.0078 35.3164C69.1133 35.2344 69.2129 35.1523 69.3066 35.0703C69.4121 34.9766 69.5117 34.8887 69.6055 34.8066C69.793 34.6309 70.0156 34.4844 70.2734 34.3672C70.4141 34.3438 70.5195 34.291 70.5898 34.209C70.6367 34.1504 70.7188 34.0625 70.8359 33.9453C70.9766 33.9688 71.082 33.957 71.1523 33.9102C71.1992 33.8867 71.2461 33.8633 71.293 33.8398C71.3516 33.8164 71.4102 33.793 71.4688 33.7695C71.7969 33.8398 72.0605 33.9688 72.2598 34.1562C72.459 34.3438 72.6523 34.5312 72.8398 34.7188C73.0039 34.7891 73.1328 34.8535 73.2266 34.9121C73.3203 34.9707 73.4141 35.0352 73.5078 35.1055C73.6016 35.293 73.6836 35.4688 73.7539 35.6328C73.8242 35.7969 73.8594 35.9844 73.8594 36.1953C73.8594 36.2891 73.8477 36.4297 73.8242 36.6172C73.8125 36.6875 73.8008 36.7578 73.7891 36.8281C73.7773 36.8984 73.7656 36.9688 73.7539 37.0391C73.6602 37.3203 73.625 37.4727 73.6484 37.4961C73.6719 37.5195 73.6836 37.5547 73.6836 37.6016C73.707 37.8125 73.6426 38.0059 73.4902 38.1816C73.3379 38.3691 73.2969 38.5742 73.3672 38.7969C73.3906 38.8906 73.3613 39.0664 73.2793 39.3242C73.1973 39.582 73.168 39.7578 73.1914 39.8516C73.2383 39.9805 73.2617 40.1621 73.2617 40.3965C73.2617 40.6309 73.3203 40.7891 73.4375 40.8711C73.6836 40.9648 73.8477 41.0117 73.9297 41.0117H74.1758C74.457 40.8711 74.8086 40.6309 75.2305 40.291C75.6523 39.9512 75.9688 39.6641 76.1797 39.4297C76.2969 39.3359 76.4082 39.2422 76.5137 39.1484C76.6191 39.0547 76.7188 38.9668 76.8125 38.8848C77.0352 38.6855 77.293 38.5156 77.5859 38.375C77.8906 38.1641 78.0781 38.0176 78.1484 37.9355L78.6055 37.4258C78.6758 37.3555 78.7637 37.2852 78.8691 37.2148C78.9746 37.1445 79.0742 37.0625 79.168 36.9688C79.3555 36.7812 79.543 36.6523 79.7305 36.582H80.1348C80.2988 36.582 80.4102 36.6289 80.4688 36.7227C80.5156 36.9102 80.5156 37.0742 80.4688 37.2148C80.4219 37.3555 80.3633 37.4844 80.293 37.6016C80.2109 37.7305 80.1055 37.8594 79.9766 37.9883C79.8828 38.1641 79.7773 38.3164 79.6602 38.4453C79.6016 38.5039 79.5371 38.5684 79.4668 38.6387C79.4082 38.6973 79.3438 38.7676 79.2734 38.8496C79.1328 39.0137 78.9688 39.1367 78.7812 39.2188C78.7227 39.2891 78.6641 39.3535 78.6055 39.4121C78.5586 39.4707 78.5059 39.5293 78.4473 39.5879L78.1133 39.9219C77.9844 40.0508 77.8789 40.1797 77.7969 40.3086C77.7148 40.4375 77.6094 40.5664 77.4805 40.6953C77.3516 40.8008 77.2227 40.9062 77.0938 41.0117C76.9766 41.1172 76.8535 41.2168 76.7246 41.3105C76.4785 41.498 76.25 41.7266 76.0391 41.9961C75.9336 42.043 75.8398 42.0957 75.7578 42.1543C75.7109 42.1895 75.6289 42.2422 75.5117 42.3125C75.2188 42.3945 74.9199 42.5645 74.6152 42.8223C74.3223 43.0801 74.0176 43.3203 73.7012 43.543C73.3965 43.7539 73.0742 43.8477 72.7344 43.8242C72.4766 43.9414 72.2539 43.9473 72.0664 43.8418C71.8789 43.7363 71.6914 43.625 71.5039 43.5078C71.2461 43.3438 71 43.1562 70.7656 42.9453C70.5312 42.7344 70.3906 42.4414 70.3438 42.0664C70.2969 41.457 70.3672 40.8828 70.5547 40.3438C70.7539 39.793 70.8945 39.2539 70.9766 38.7266C70.9766 38.668 71.0117 38.457 71.082 38.0938C71.1641 37.7188 71.1758 37.4727 71.1172 37.3555C71.082 37.3086 71.0527 37.2266 71.0293 37.1094C71.0176 36.9922 70.918 36.875 70.7305 36.7578C70.625 36.6992 70.5781 36.6875 70.5898 36.7227C70.6016 36.7695 70.5078 36.793 70.3086 36.793C70.1094 36.8633 69.9453 36.957 69.8164 37.0742C69.7461 37.1328 69.6699 37.1914 69.5879 37.25C69.5176 37.3086 69.4414 37.3672 69.3594 37.4258C69.1484 37.6719 68.8848 37.9062 68.5684 38.1289C68.2871 38.3281 68.0352 38.5742 67.8125 38.8672C67.625 39.0781 67.4492 39.2891 67.2852 39.5C67.1445 39.6875 66.957 39.8984 66.7227 40.1328C66.0664 40.8828 65.4219 41.5742 64.7891 42.207C64.707 42.3008 64.625 42.3945 64.543 42.4883C64.4727 42.582 64.4023 42.6758 64.332 42.7695C64.2617 42.8633 64.1855 42.957 64.1035 43.0508C64.0332 43.1445 63.957 43.2383 63.875 43.332C63.5938 43.6836 63.2891 44.0234 62.9609 44.3516C62.8203 44.5859 62.6211 44.8086 62.3633 45.0195C62.1055 45.2305 61.8477 45.3828 61.5898 45.4766C61.5195 45.4297 61.4434 45.4297 61.3613 45.4766C61.2793 45.5234 61.2031 45.5469 61.1328 45.5469C60.9922 45.4883 60.8809 45.4414 60.7988 45.4062C60.7168 45.3828 60.6641 45.3652 60.6406 45.3535C60.5938 45.3301 60.5586 45.2773 60.5352 45.1953C60.3008 45.0547 60.2129 44.8262 60.2715 44.5098C60.3301 44.1934 60.3828 43.918 60.4297 43.6836C60.5469 43.1562 60.6875 42.6289 60.8516 42.1016C61.0156 41.5742 61.1973 41.0527 61.3965 40.5371C61.5957 40.0215 61.7773 39.5059 61.9414 38.9902C62.1055 38.4746 62.2461 37.9648 62.3633 37.4609C62.4805 37.0625 62.5977 36.6934 62.7148 36.3535C62.832 36.0137 62.9727 35.6562 63.1367 35.2812C63.3125 34.9062 63.4238 34.5723 63.4707 34.2793C63.5176 33.9863 63.6289 33.6523 63.8047 33.2773C63.9102 33.0898 63.9922 32.9141 64.0508 32.75C64.1211 32.5508 64.1914 32.375 64.2617 32.2227C64.5312 31.7422 64.7773 31.1621 65 30.4824C65.2344 29.791 65.4805 29.1758 65.7383 28.6367C66.0195 27.8867 66.3125 27.1602 66.6172 26.457C66.9219 25.7539 67.2617 25.0625 67.6367 24.3828C67.8594 23.4805 68.2227 22.6367 68.7266 21.8516C68.9609 21.5469 69.1191 21.3008 69.2012 21.1133C69.3066 20.8789 69.4062 20.7031 69.5 20.5859C69.7812 20.2461 70.0977 19.9824 70.4492 19.7949C70.7891 19.6074 71.0938 19.3438 71.3633 19.0039C71.5625 18.9102 71.7441 18.8398 71.9082 18.793C72.002 18.7695 72.0898 18.7461 72.1719 18.7227C72.2539 18.6875 72.3359 18.6523 72.418 18.6172C72.4883 18.6875 72.5234 18.8281 72.5234 19.0391C72.5703 19.0391 72.582 19.1094 72.5586 19.25C72.5352 19.3906 72.5352 19.5078 72.5586 19.6016C72.5586 19.9297 72.5293 20.1641 72.4707 20.3047L72.3125 20.6914C72.2891 20.8789 72.2773 21.002 72.2773 21.0605C72.2773 21.1426 72.2656 21.2422 72.2422 21.3594C72.1719 21.582 72.1426 21.7051 72.1543 21.7285C72.166 21.752 72.1719 21.793 72.1719 21.8516C72.1719 21.8984 72.1602 22.0039 72.1367 22.168C72.1133 22.332 72.1016 22.4492 72.1016 22.5195C72.0898 22.7539 72.0254 23.0234 71.9082 23.3281C71.8145 23.5859 71.7266 23.8438 71.6445 24.1016C71.5039 24.2656 71.4219 24.3945 71.3984 24.4883C71.375 24.582 71.3281 24.6406 71.2578 24.6641C71.1875 24.8633 71.1172 25.0625 71.0469 25.2617C70.9883 25.4492 70.9297 25.6367 70.8711 25.8242C70.7539 26.1875 70.5781 26.5391 70.3438 26.8789C70.2617 27.125 70.1387 27.377 69.9746 27.6348C69.8926 27.752 69.8164 27.875 69.7461 28.0039C69.6875 28.1211 69.6289 28.2383 69.5703 28.3555L69.4121 28.6895C69.3418 28.8301 69.2891 28.9414 69.2539 29.0234C69.0898 29.3281 68.9199 29.6387 68.7441 29.9551C68.5684 30.2715 68.3633 30.5586 68.1289 30.8164C67.707 31.707 67.2617 32.6035 66.793 33.5059C66.3242 34.4082 65.8672 35.2812 65.4219 36.125C65.3398 36.2539 65.2695 36.377 65.2109 36.4941C65.1523 36.5996 65.1055 36.6992 65.0703 36.793C65.0117 36.9219 64.9707 37.0684 64.9473 37.2324C64.9238 37.373 64.8594 37.4961 64.7539 37.6016C64.7188 37.707 64.6836 37.8125 64.6484 37.918C64.6133 38.0117 64.584 38.1055 64.5605 38.1992C64.5137 38.3867 64.4258 38.5625 64.2969 38.7266C64.2148 39.1836 64.0684 39.623 63.8574 40.0449C63.6582 40.4434 63.5 40.8711 63.3828 41.3281ZM78.6055 36.2305C78.7578 36.1484 78.9453 35.9727 79.168 35.7031C79.3906 35.4219 79.6074 35.1523 79.8184 34.8945C80.0293 34.625 80.1875 34.4727 80.293 34.4375C80.3633 34.3203 80.4277 34.2207 80.4863 34.1387C80.5449 34.0566 80.6328 33.9805 80.75 33.9102C80.9375 33.5703 81.1836 33.2832 81.4883 33.0488C81.8047 32.8027 82.0977 32.5391 82.3672 32.2578C82.5898 32.1641 82.8125 32.0586 83.0352 31.9414C83.2695 31.8242 83.498 31.6895 83.7207 31.5371C84.1777 31.2324 84.6875 31.0742 85.25 31.0625C85.5078 31.1797 85.7598 31.2148 86.0059 31.168C86.2402 31.1211 86.4688 31.1797 86.6914 31.3438C86.8203 31.5664 86.9258 31.7012 87.0078 31.748C87.0898 31.7949 87.1602 31.8594 87.2188 31.9414C87.3125 32.2344 87.3828 32.4277 87.4297 32.5215C87.4883 32.6152 87.5234 32.7148 87.5352 32.8203C87.5469 32.9961 87.5586 33.1484 87.5703 33.2773C87.582 33.3945 87.5938 33.4941 87.6055 33.5762C87.6172 33.7285 87.6172 33.875 87.6055 34.0156C87.5352 34.6133 87.418 35.2109 87.2539 35.8086C87.2305 35.8789 87.207 35.9492 87.1836 36.0195C87.1602 36.0898 87.1367 36.166 87.1133 36.248C87.0664 36.4004 87.0078 36.5352 86.9375 36.6523C86.7617 36.875 86.6387 37.0566 86.5684 37.1973C86.4629 37.3848 86.3867 37.5078 86.3398 37.5664C86.1992 37.707 86.0645 37.8359 85.9355 37.9531C85.8184 38.0703 85.707 38.1758 85.6016 38.2695C85.4961 38.3281 85.3906 38.3926 85.2852 38.4629C85.1797 38.5215 85.0742 38.5859 84.9688 38.6562C84.7695 38.7852 84.5352 38.8789 84.2656 38.9375L83.9492 39.1309C83.8438 39.2012 83.7266 39.2422 83.5977 39.2539C83.3867 39.4062 83.1523 39.5293 82.8945 39.623C82.7773 39.6699 82.6543 39.7168 82.5254 39.7637C82.4082 39.8105 82.2852 39.8633 82.1562 39.9219C81.9805 39.9922 81.8281 40.0742 81.6992 40.168C81.5703 40.2617 81.4062 40.3555 81.207 40.4492C81.1016 40.4844 80.9316 40.5254 80.6973 40.5723C80.4746 40.6074 80.3164 40.6484 80.2227 40.6953C80.3398 40.9297 80.3867 41.2227 80.3633 41.5742C80.3516 41.9023 80.4102 42.1953 80.5391 42.4531C80.8438 42.5234 81.1777 42.5762 81.541 42.6113C81.9043 42.6465 82.25 42.6406 82.5781 42.5938C82.6367 42.582 82.6953 42.5645 82.7539 42.541C82.8242 42.5176 82.8945 42.4941 82.9648 42.4707C83.0352 42.4473 83.1055 42.4238 83.1758 42.4004C83.2461 42.377 83.3164 42.3594 83.3867 42.3477C83.6445 42.3008 83.8965 42.2422 84.1426 42.1719C84.3887 42.1016 84.6055 42.0078 84.793 41.8906C85.4727 41.6562 86.1289 41.3398 86.7617 40.9414C87.3945 40.543 87.9453 40.1094 88.4141 39.6406C88.6953 39.4531 89.0059 39.1953 89.3457 38.8672C89.6855 38.5391 89.9492 38.2344 90.1367 37.9531C90.4883 37.5781 90.7988 37.2852 91.0684 37.0742C91.3379 36.8633 91.5898 36.7695 91.8242 36.793C92.0117 36.793 92.1934 36.9043 92.3691 37.127C92.5449 37.3496 92.5273 37.5898 92.3164 37.8477C92.0938 37.9883 91.8477 38.1992 91.5781 38.4805C91.3203 38.7617 91.0508 38.9609 90.7695 39.0781C90.5703 39.207 90.3066 39.4648 89.9785 39.8516C89.6621 40.2148 89.3984 40.4961 89.1875 40.6953C89.1406 40.7422 89.0879 40.7949 89.0293 40.8535C88.9707 40.9121 88.9004 40.9707 88.8184 41.0293C88.666 41.1465 88.543 41.2695 88.4492 41.3984C88.0859 41.7031 87.7344 41.9609 87.3945 42.1719C87.2656 42.125 87.1602 42.1484 87.0781 42.2422C86.9727 42.3711 86.8789 42.4648 86.7969 42.5234C86.7617 42.5469 86.7266 42.5703 86.6914 42.5938C86.6562 42.6172 86.6152 42.6406 86.5684 42.6641C86.5215 42.6875 86.4805 42.7109 86.4453 42.7344C86.4102 42.7578 86.375 42.7812 86.3398 42.8047C86.1523 42.9688 85.9473 43.1328 85.7246 43.2969C85.502 43.4609 85.2734 43.6016 85.0391 43.7188C84.8047 43.8594 84.5703 43.9883 84.3359 44.1055C84.1016 44.2344 83.8672 44.3457 83.6328 44.4395C83.3984 44.5332 83.1641 44.6445 82.9297 44.7734C82.707 44.9023 82.4844 45.043 82.2617 45.1953L81.875 45.248C81.8164 45.2598 81.7578 45.2656 81.6992 45.2656C81.6406 45.2773 81.582 45.2891 81.5234 45.3008C81.3945 45.3477 81.2715 45.3711 81.1543 45.3711C81.0371 45.3711 80.8906 45.3477 80.7148 45.3008C79.9414 45.0898 79.3086 44.7148 78.8164 44.1758C78.7461 44.1055 78.6699 44.041 78.5879 43.9824C78.5176 43.9121 78.4414 43.8477 78.3594 43.7891C78.1719 43.6484 78.043 43.5195 77.9727 43.4023C77.8672 43.2266 77.7617 42.9512 77.6562 42.5762C77.5391 42.2012 77.4395 41.8203 77.3574 41.4336C77.2754 41.0352 77.2344 40.7305 77.2344 40.5195C77.3047 40.3789 77.3809 40.1387 77.4629 39.7988C77.5449 39.4473 77.6152 39.1016 77.6738 38.7617C77.7324 38.4102 77.7617 38.1641 77.7617 38.0234C77.8086 37.9766 77.9023 37.8242 78.043 37.5664C78.1719 37.2969 78.2949 37.0273 78.4121 36.7578C78.541 36.4766 78.6055 36.3008 78.6055 36.2305ZM84.2656 33.9805C84.1016 34.1914 83.9375 34.3906 83.7734 34.5781C83.6094 34.7656 83.4219 34.9414 83.2109 35.1055C83.0703 35.3633 82.9062 35.5977 82.7188 35.8086C82.5312 36.0195 82.3438 36.2188 82.1562 36.4062C82.0625 36.5938 81.957 36.7402 81.8398 36.8457C81.7227 36.9512 81.5938 37.0625 81.4531 37.1797C81.3008 37.4375 81.1133 37.6836 80.8906 37.918C80.668 38.1523 80.6211 38.4219 80.75 38.7266C81.0078 38.7734 81.2656 38.7383 81.5234 38.6211C81.7812 38.5039 82.0039 38.3984 82.1914 38.3047C82.2852 38.2461 82.3789 38.1934 82.4727 38.1465C82.5781 38.0996 82.6777 38.0527 82.7715 38.0059C82.8652 37.959 82.959 37.9121 83.0527 37.8652C83.1465 37.8184 83.2344 37.7656 83.3164 37.707L84.2305 36.793C84.3711 36.6641 84.5117 36.5117 84.6523 36.3359C84.7109 36.2539 84.7695 36.1719 84.8281 36.0898C84.8984 35.9961 84.9688 35.9023 85.0391 35.8086C85.0977 35.5508 85.1914 35.3105 85.3203 35.0879C85.4609 34.8535 85.5195 34.6133 85.4961 34.3672C85.4844 34.2617 85.4434 34.1387 85.373 33.998C85.3027 33.8574 85.2617 33.7461 85.25 33.6641C85.0039 33.6641 84.8223 33.7051 84.7051 33.7871C84.6465 33.834 84.5762 33.875 84.4941 33.9102C84.4238 33.9336 84.3477 33.957 84.2656 33.9805ZM101.281 35.7031C101.516 35.7617 101.686 35.8438 101.791 35.9492C101.873 36.0312 101.914 36.125 101.914 36.2305C101.727 36.4883 101.615 36.6582 101.58 36.7402C101.545 36.8223 101.469 36.8867 101.352 36.9336C101.199 37.168 101.035 37.3906 100.859 37.6016C100.695 37.8008 100.514 37.9941 100.314 38.1816C99.9512 38.5332 99.5938 38.9375 99.2422 39.3945C99.0898 39.5469 98.9844 39.6641 98.9258 39.7461C98.8672 39.8281 98.7617 39.9453 98.6094 40.0977C98.3281 40.2969 98.0938 40.502 97.9062 40.7129C97.8008 40.8301 97.6895 40.9414 97.5723 41.0469C97.4668 41.1406 97.3555 41.2344 97.2383 41.3281C97.1797 41.375 97.1211 41.4219 97.0625 41.4688C97.0156 41.5039 96.9629 41.5449 96.9043 41.5918C96.8574 41.6387 96.8047 41.6855 96.7461 41.7324C96.6875 41.7793 96.6289 41.832 96.5703 41.8906C96.4766 41.9844 96.3711 42.0781 96.2539 42.1719C96.207 42.207 96.1543 42.248 96.0957 42.2949C96.0488 42.3301 95.9961 42.3711 95.9375 42.418C95.7969 42.582 95.6562 42.7461 95.5156 42.9102C95.375 43.0742 95.2344 43.25 95.0938 43.4375C94.8477 43.5547 94.6133 43.6953 94.3906 43.8594C94.1797 44.0117 93.9336 44.1523 93.6523 44.2812C93.5352 44.3516 93.4238 44.4629 93.3184 44.6152C93.2246 44.7559 93.0898 44.8555 92.9141 44.9141C92.7266 44.9844 92.5273 45.002 92.3164 44.9668C92.1055 44.9316 91.9297 44.8789 91.7891 44.8086C91.6367 44.7031 91.543 44.6445 91.5078 44.6328C91.4141 44.6094 91.3555 44.5977 91.332 44.5977C91.1094 44.2812 90.957 43.9473 90.875 43.5957C90.8281 43.4082 90.7754 43.2207 90.7168 43.0332C90.6699 42.8457 90.6172 42.6523 90.5586 42.4531C90.5117 42.3359 90.4766 42.2129 90.4531 42.084C90.4297 41.9551 90.4062 41.8086 90.3828 41.6445L90.3301 41.3633C90.3184 41.3164 90.3066 41.2695 90.2949 41.2227C90.2832 41.1641 90.2656 41.1055 90.2422 41.0469C90.1953 40.9297 90.1484 40.8066 90.1016 40.6777C90.0547 40.5488 90.0195 40.4141 89.9961 40.2734C89.9492 39.9922 89.9316 39.7168 89.9434 39.4473C89.9551 39.1777 89.9844 38.9141 90.0312 38.6562C90.1719 37.8828 90.377 37.1445 90.6465 36.4414C90.916 35.7383 91.1914 35.0703 91.4727 34.4375C91.5312 34.1445 91.5957 33.9219 91.666 33.7695C91.7363 33.6172 91.8125 33.4062 91.8945 33.1367C92 33.0078 92.082 32.8203 92.1406 32.5742C92.1641 32.4688 92.1875 32.3633 92.2109 32.2578C92.2461 32.1523 92.2812 32.0469 92.3164 31.9414C92.3516 31.8477 92.3926 31.7539 92.4395 31.6602C92.4863 31.5547 92.5332 31.4434 92.5801 31.3262C92.6738 31.1152 92.75 30.8984 92.8086 30.6758C92.8906 30.4062 92.9551 30.1719 93.002 29.9727C93.0254 29.8555 93.0547 29.7441 93.0898 29.6387C93.1367 29.5332 93.1836 29.4336 93.2305 29.3398C93.3242 29.0938 93.4121 28.8535 93.4941 28.6191C93.5879 28.3848 93.6758 28.1562 93.7578 27.9336C93.8398 27.7109 93.9219 27.4883 94.0039 27.2656C94.0977 27.043 94.1914 26.8203 94.2852 26.5977C94.3086 26.5273 94.332 26.457 94.3555 26.3867C94.3789 26.3164 94.4023 26.2461 94.4258 26.1758C94.4727 26.0469 94.543 25.918 94.6367 25.7891C94.6953 25.625 94.7539 25.502 94.8125 25.4199C94.9062 25.2793 94.9766 25.168 95.0234 25.0859C95.0234 24.957 95.0645 24.8691 95.1465 24.8223C95.2051 24.7871 95.2695 24.7109 95.3398 24.5938C95.4688 24.3945 95.5566 24.207 95.6035 24.0312C95.6504 23.8555 95.7383 23.668 95.8672 23.4688L96.2891 22.9414C96.3125 22.8945 96.3359 22.8477 96.3594 22.8008C96.3828 22.7539 96.4062 22.707 96.4297 22.6602C96.4883 22.5664 96.5586 22.4844 96.6406 22.4141C96.9102 21.9922 97.1914 21.5703 97.4844 21.1484L98.4336 19.8125C98.6445 19.4844 98.8789 19.1738 99.1367 18.8809C99.3945 18.5879 99.6641 18.3008 99.9453 18.0195C100.039 17.9023 100.15 17.7734 100.279 17.6328C100.408 17.4922 100.543 17.4102 100.684 17.3867C100.906 17.3633 101.141 17.3867 101.387 17.457C101.457 17.5742 101.521 17.6973 101.58 17.8262C101.639 17.9551 101.691 18.1016 101.738 18.2656C101.785 18.9922 101.762 19.6953 101.668 20.375C101.574 21.0547 101.469 21.7227 101.352 22.3789C101.328 22.5312 101.322 22.6426 101.334 22.7129C101.346 22.7832 101.34 22.8945 101.316 23.0469C101.27 23.1875 101.211 23.3691 101.141 23.5918C101.07 23.8145 101.012 24.0195 100.965 24.207C100.965 24.5234 100.895 24.8164 100.754 25.0859C100.613 25.3438 100.52 25.6016 100.473 25.8594C100.402 25.9062 100.361 25.9824 100.35 26.0879C100.338 26.1934 100.297 26.2695 100.227 26.3164C100.168 26.5859 100.092 26.8203 99.998 27.0195C99.8926 27.2305 99.8047 27.4414 99.7344 27.6523C99.5586 27.8984 99.3828 28.1387 99.207 28.373C99.0312 28.6074 98.8496 28.8418 98.6621 29.0762C98.4746 29.2988 98.293 29.5332 98.1172 29.7793C97.9531 30.0137 97.7891 30.2539 97.625 30.5C97.2148 31.1211 96.7871 31.707 96.3418 32.2578C95.8965 32.8086 95.4688 33.3945 95.0586 34.0156C94.7305 34.3086 94.4727 34.6016 94.2852 34.8945C94.0859 35.2109 93.8164 35.5039 93.4766 35.7734C93.418 36.0078 93.3594 36.2539 93.3008 36.5117C93.2539 36.7695 93.2012 37.0332 93.1426 37.3027C93.0957 37.5723 93.043 37.8477 92.9844 38.1289C92.9258 38.4102 92.8672 38.6914 92.8086 38.9727C92.7969 39.125 92.7617 39.2832 92.7031 39.4473C92.6797 39.5293 92.6562 39.6113 92.6328 39.6934C92.6094 39.7637 92.5859 39.8398 92.5625 39.9219C92.5156 40.0859 92.5039 40.2852 92.5273 40.5195C92.5391 40.7305 92.5039 40.9297 92.4219 41.1172C92.457 41.2109 92.4863 41.3457 92.5098 41.5215C92.5215 41.6738 92.5625 41.8086 92.6328 41.9258C92.7617 42.1367 92.9023 42.2422 93.0547 42.2422C93.2305 42.1484 93.3242 42.1074 93.3359 42.1191C93.3477 42.1309 93.3828 42.125 93.4414 42.1016C93.5586 42.0312 93.6758 41.9375 93.793 41.8203C93.9102 41.7031 94.0156 41.5977 94.1094 41.5039C94.2383 41.4453 94.3262 41.3926 94.373 41.3457C94.4082 41.3105 94.4727 41.2578 94.5664 41.1875C94.6367 41.1406 94.7012 41.1055 94.7598 41.082C94.8184 41.0586 94.8711 41.0234 94.918 40.9766C95.2578 40.625 95.5742 40.3613 95.8672 40.1855C96.1719 40.0098 96.418 39.793 96.6055 39.5352L97.2383 39.1484C97.3672 39.0781 97.4902 38.9785 97.6074 38.8496C97.7129 38.7207 97.8477 38.6211 98.0117 38.5508C98.082 38.457 98.1289 38.3984 98.1523 38.375C98.1758 38.3516 98.2227 38.293 98.293 38.1992C98.4336 38.1055 98.5742 38.0117 98.7148 37.918C98.8555 37.8242 98.9902 37.7305 99.1191 37.6367C99.248 37.543 99.3828 37.4492 99.5234 37.3555C99.6758 37.2617 99.8281 37.168 99.9805 37.0742C100.027 36.957 100.104 36.8633 100.209 36.793C100.314 36.7227 100.402 36.6523 100.473 36.582C100.543 36.5117 100.602 36.4355 100.648 36.3535C100.707 36.2598 100.789 36.207 100.895 36.1953C100.906 36.0898 100.959 36.0078 101.053 35.9492C101.146 35.8906 101.223 35.8086 101.281 35.7031ZM99.3828 22.5898H99.3477C99.1367 22.6367 98.9902 22.7422 98.9082 22.9062C98.8262 23.0703 98.75 23.2578 98.6797 23.4688C98.6328 23.5625 98.5859 23.6445 98.5391 23.7148C98.5039 23.7852 98.4746 23.8438 98.4512 23.8906C98.4043 23.9727 98.3867 24.1133 98.3984 24.3125C98.0352 24.9102 97.6895 25.5254 97.3613 26.1582C97.0332 26.7793 96.7168 27.418 96.4121 28.0742C96.1191 28.7305 95.8203 29.3926 95.5156 30.0605C95.2109 30.7168 94.9062 31.3789 94.6016 32.0469C95.082 31.5664 95.5215 31.0039 95.9199 30.3594C96.1191 30.0312 96.3242 29.7266 96.5352 29.4453C96.7578 29.1641 96.9805 28.9062 97.2031 28.6719C97.3672 28.2734 97.5371 27.8867 97.7129 27.5117C97.9004 27.1367 98.0938 26.7793 98.293 26.4395C98.6797 25.7832 98.9844 25.0039 99.207 24.1016C99.1133 23.8086 99.125 23.5566 99.2422 23.3457C99.3594 23.1348 99.4062 22.8828 99.3828 22.5898ZM110.703 35.7031C110.938 35.7617 111.107 35.8438 111.213 35.9492C111.295 36.0312 111.336 36.125 111.336 36.2305C111.148 36.4883 111.037 36.6582 111.002 36.7402C110.967 36.8223 110.891 36.8867 110.773 36.9336C110.621 37.168 110.457 37.3906 110.281 37.6016C110.117 37.8008 109.936 37.9941 109.736 38.1816C109.373 38.5332 109.016 38.9375 108.664 39.3945C108.512 39.5469 108.406 39.6641 108.348 39.7461C108.289 39.8281 108.184 39.9453 108.031 40.0977C107.75 40.2969 107.516 40.502 107.328 40.7129C107.223 40.8301 107.111 40.9414 106.994 41.0469C106.889 41.1406 106.777 41.2344 106.66 41.3281C106.602 41.375 106.543 41.4219 106.484 41.4688C106.438 41.5039 106.385 41.5449 106.326 41.5918C106.279 41.6387 106.227 41.6855 106.168 41.7324C106.109 41.7793 106.051 41.832 105.992 41.8906C105.898 41.9844 105.793 42.0781 105.676 42.1719C105.629 42.207 105.576 42.248 105.518 42.2949C105.471 42.3301 105.418 42.3711 105.359 42.418C105.219 42.582 105.078 42.7461 104.938 42.9102C104.797 43.0742 104.656 43.25 104.516 43.4375C104.27 43.5547 104.035 43.6953 103.812 43.8594C103.602 44.0117 103.355 44.1523 103.074 44.2812C102.957 44.3516 102.846 44.4629 102.74 44.6152C102.646 44.7559 102.512 44.8555 102.336 44.9141C102.148 44.9844 101.949 45.002 101.738 44.9668C101.527 44.9316 101.352 44.8789 101.211 44.8086C101.059 44.7031 100.965 44.6445 100.93 44.6328C100.836 44.6094 100.777 44.5977 100.754 44.5977C100.531 44.2812 100.379 43.9473 100.297 43.5957C100.25 43.4082 100.197 43.2207 100.139 43.0332C100.092 42.8457 100.039 42.6523 99.9805 42.4531C99.9336 42.3359 99.8984 42.2129 99.875 42.084C99.8516 41.9551 99.8281 41.8086 99.8047 41.6445L99.752 41.3633C99.7402 41.3164 99.7285 41.2695 99.7168 41.2227C99.7051 41.1641 99.6875 41.1055 99.6641 41.0469C99.6172 40.9297 99.5703 40.8066 99.5234 40.6777C99.4766 40.5488 99.4414 40.4141 99.418 40.2734C99.3711 39.9922 99.3535 39.7168 99.3652 39.4473C99.377 39.1777 99.4062 38.9141 99.4531 38.6562C99.5938 37.8828 99.7988 37.1445 100.068 36.4414C100.338 35.7383 100.613 35.0703 100.895 34.4375C100.953 34.1445 101.018 33.9219 101.088 33.7695C101.158 33.6172 101.234 33.4062 101.316 33.1367C101.422 33.0078 101.504 32.8203 101.562 32.5742C101.586 32.4688 101.609 32.3633 101.633 32.2578C101.668 32.1523 101.703 32.0469 101.738 31.9414C101.773 31.8477 101.814 31.7539 101.861 31.6602C101.908 31.5547 101.955 31.4434 102.002 31.3262C102.096 31.1152 102.172 30.8984 102.23 30.6758C102.312 30.4062 102.377 30.1719 102.424 29.9727C102.447 29.8555 102.477 29.7441 102.512 29.6387C102.559 29.5332 102.605 29.4336 102.652 29.3398C102.746 29.0938 102.834 28.8535 102.916 28.6191C103.01 28.3848 103.098 28.1562 103.18 27.9336C103.262 27.7109 103.344 27.4883 103.426 27.2656C103.52 27.043 103.613 26.8203 103.707 26.5977C103.73 26.5273 103.754 26.457 103.777 26.3867C103.801 26.3164 103.824 26.2461 103.848 26.1758C103.895 26.0469 103.965 25.918 104.059 25.7891C104.117 25.625 104.176 25.502 104.234 25.4199C104.328 25.2793 104.398 25.168 104.445 25.0859C104.445 24.957 104.486 24.8691 104.568 24.8223C104.627 24.7871 104.691 24.7109 104.762 24.5938C104.891 24.3945 104.979 24.207 105.025 24.0312C105.072 23.8555 105.16 23.668 105.289 23.4688L105.711 22.9414C105.734 22.8945 105.758 22.8477 105.781 22.8008C105.805 22.7539 105.828 22.707 105.852 22.6602C105.91 22.5664 105.98 22.4844 106.062 22.4141C106.332 21.9922 106.613 21.5703 106.906 21.1484L107.855 19.8125C108.066 19.4844 108.301 19.1738 108.559 18.8809C108.816 18.5879 109.086 18.3008 109.367 18.0195C109.461 17.9023 109.572 17.7734 109.701 17.6328C109.83 17.4922 109.965 17.4102 110.105 17.3867C110.328 17.3633 110.562 17.3867 110.809 17.457C110.879 17.5742 110.943 17.6973 111.002 17.8262C111.061 17.9551 111.113 18.1016 111.16 18.2656C111.207 18.9922 111.184 19.6953 111.09 20.375C110.996 21.0547 110.891 21.7227 110.773 22.3789C110.75 22.5312 110.744 22.6426 110.756 22.7129C110.768 22.7832 110.762 22.8945 110.738 23.0469C110.691 23.1875 110.633 23.3691 110.562 23.5918C110.492 23.8145 110.434 24.0195 110.387 24.207C110.387 24.5234 110.316 24.8164 110.176 25.0859C110.035 25.3438 109.941 25.6016 109.895 25.8594C109.824 25.9062 109.783 25.9824 109.771 26.0879C109.76 26.1934 109.719 26.2695 109.648 26.3164C109.59 26.5859 109.514 26.8203 109.42 27.0195C109.314 27.2305 109.227 27.4414 109.156 27.6523C108.98 27.8984 108.805 28.1387 108.629 28.373C108.453 28.6074 108.271 28.8418 108.084 29.0762C107.896 29.2988 107.715 29.5332 107.539 29.7793C107.375 30.0137 107.211 30.2539 107.047 30.5C106.637 31.1211 106.209 31.707 105.764 32.2578C105.318 32.8086 104.891 33.3945 104.48 34.0156C104.152 34.3086 103.895 34.6016 103.707 34.8945C103.508 35.2109 103.238 35.5039 102.898 35.7734C102.84 36.0078 102.781 36.2539 102.723 36.5117C102.676 36.7695 102.623 37.0332 102.564 37.3027C102.518 37.5723 102.465 37.8477 102.406 38.1289C102.348 38.4102 102.289 38.6914 102.23 38.9727C102.219 39.125 102.184 39.2832 102.125 39.4473C102.102 39.5293 102.078 39.6113 102.055 39.6934C102.031 39.7637 102.008 39.8398 101.984 39.9219C101.938 40.0859 101.926 40.2852 101.949 40.5195C101.961 40.7305 101.926 40.9297 101.844 41.1172C101.879 41.2109 101.908 41.3457 101.932 41.5215C101.943 41.6738 101.984 41.8086 102.055 41.9258C102.184 42.1367 102.324 42.2422 102.477 42.2422C102.652 42.1484 102.746 42.1074 102.758 42.1191C102.77 42.1309 102.805 42.125 102.863 42.1016C102.98 42.0312 103.098 41.9375 103.215 41.8203C103.332 41.7031 103.438 41.5977 103.531 41.5039C103.66 41.4453 103.748 41.3926 103.795 41.3457C103.83 41.3105 103.895 41.2578 103.988 41.1875C104.059 41.1406 104.123 41.1055 104.182 41.082C104.24 41.0586 104.293 41.0234 104.34 40.9766C104.68 40.625 104.996 40.3613 105.289 40.1855C105.594 40.0098 105.84 39.793 106.027 39.5352L106.66 39.1484C106.789 39.0781 106.912 38.9785 107.029 38.8496C107.135 38.7207 107.27 38.6211 107.434 38.5508C107.504 38.457 107.551 38.3984 107.574 38.375C107.598 38.3516 107.645 38.293 107.715 38.1992C107.855 38.1055 107.996 38.0117 108.137 37.918C108.277 37.8242 108.412 37.7305 108.541 37.6367C108.67 37.543 108.805 37.4492 108.945 37.3555C109.098 37.2617 109.25 37.168 109.402 37.0742C109.449 36.957 109.525 36.8633 109.631 36.793C109.736 36.7227 109.824 36.6523 109.895 36.582C109.965 36.5117 110.023 36.4355 110.07 36.3535C110.129 36.2598 110.211 36.207 110.316 36.1953C110.328 36.0898 110.381 36.0078 110.475 35.9492C110.568 35.8906 110.645 35.8086 110.703 35.7031ZM108.805 22.5898H108.77C108.559 22.6367 108.412 22.7422 108.33 22.9062C108.248 23.0703 108.172 23.2578 108.102 23.4688C108.055 23.5625 108.008 23.6445 107.961 23.7148C107.926 23.7852 107.896 23.8438 107.873 23.8906C107.826 23.9727 107.809 24.1133 107.82 24.3125C107.457 24.9102 107.111 25.5254 106.783 26.1582C106.455 26.7793 106.139 27.418 105.834 28.0742C105.541 28.7305 105.242 29.3926 104.938 30.0605C104.633 30.7168 104.328 31.3789 104.023 32.0469C104.504 31.5664 104.943 31.0039 105.342 30.3594C105.541 30.0312 105.746 29.7266 105.957 29.4453C106.18 29.1641 106.402 28.9062 106.625 28.6719C106.789 28.2734 106.959 27.8867 107.135 27.5117C107.322 27.1367 107.516 26.7793 107.715 26.4395C108.102 25.7832 108.406 25.0039 108.629 24.1016C108.535 23.8086 108.547 23.5566 108.664 23.3457C108.781 23.1348 108.828 22.8828 108.805 22.5898ZM119.879 34.2266L119.844 34.5078C119.867 34.5898 119.844 34.7305 119.773 34.9297C119.656 35.0703 119.586 35.2227 119.562 35.3867C119.516 35.4805 119.475 35.5625 119.439 35.6328C119.404 35.7031 119.375 35.7969 119.352 35.9141C119.305 36.0547 119.287 36.2188 119.299 36.4062C119.311 36.5 119.311 36.5938 119.299 36.6875C119.299 36.7695 119.293 36.8516 119.281 36.9336C119.234 37.1914 119.199 37.4434 119.176 37.6895C119.152 37.9355 119.129 38.1875 119.105 38.4453C119.105 38.7031 119.082 38.9961 119.035 39.3242C118.988 39.6523 118.941 39.9453 118.895 40.2031C119 40.3906 119.059 40.5664 119.07 40.7305C119.082 40.9062 119.164 41.0586 119.316 41.1875C119.785 41.1172 120.16 41.0059 120.441 40.8535C120.723 40.7012 120.992 40.4844 121.25 40.2031C121.438 40.1211 121.584 40.0391 121.689 39.957C121.783 39.875 121.918 39.7812 122.094 39.6758L122.375 39.3945C122.656 39.2422 122.814 39.1484 122.85 39.1133C122.873 39.0898 122.902 39.0664 122.938 39.043C122.984 39.0195 123.031 38.9961 123.078 38.9727C123.477 38.7148 123.781 38.4453 123.992 38.1641C124.168 38.0234 124.314 37.877 124.432 37.7246C124.525 37.5957 124.707 37.4727 124.977 37.3555C125.129 37.168 125.299 37.0098 125.486 36.8809C125.674 36.752 125.844 36.5938 125.996 36.4062C126.125 36.4062 126.219 36.4297 126.277 36.4766C126.312 36.5 126.348 36.5234 126.383 36.5469C126.43 36.5703 126.477 36.5938 126.523 36.6172C126.594 36.8047 126.605 36.998 126.559 37.1973C126.512 37.3965 126.43 37.5781 126.312 37.7422C126.195 37.8945 126.137 37.9883 126.137 38.0234C126.137 38.0469 126.125 38.0703 126.102 38.0938C126.031 38.1758 125.943 38.2637 125.838 38.3574C125.732 38.4395 125.645 38.5273 125.574 38.6211C125.457 38.832 125.363 38.9375 125.293 38.9375C125.223 38.9375 125.164 38.9609 125.117 39.0078C124.906 39.1367 124.76 39.2305 124.678 39.2891C124.584 39.3711 124.449 39.4648 124.273 39.5703C124.027 39.6992 123.875 39.793 123.816 39.8516C123.758 39.9102 123.711 39.9453 123.676 39.957C123.395 40.2734 123.119 40.5371 122.85 40.748C122.604 40.9355 122.34 41.1992 122.059 41.5391C121.965 41.6094 121.871 41.6797 121.777 41.75C121.684 41.8203 121.602 41.9141 121.531 42.0312C121.32 42.1719 121.15 42.3125 121.021 42.4531C120.893 42.5938 120.746 42.7578 120.582 42.9453C120.441 43.0156 120.289 43.1152 120.125 43.2441C119.926 43.3965 119.75 43.5078 119.598 43.5781C119.539 43.6133 119.439 43.666 119.299 43.7363C119.182 43.7949 119.07 43.8242 118.965 43.8242C118.695 43.8711 118.438 43.8477 118.191 43.7539C117.969 43.6719 117.746 43.6016 117.523 43.543C117.43 43.4023 117.312 43.2852 117.172 43.1914C116.961 42.9336 116.809 42.6289 116.715 42.2773C116.621 41.9258 116.527 41.5508 116.434 41.1523C116.223 41.293 116.047 41.4453 115.906 41.6094C115.766 41.7852 115.555 41.9375 115.273 42.0664C115.039 42.2891 114.799 42.5117 114.553 42.7344C114.307 42.9453 114.049 43.1504 113.779 43.3496C113.521 43.5488 113.258 43.7598 112.988 43.9824C112.719 44.1934 112.449 44.4102 112.18 44.6328C111.992 44.8203 111.863 44.8906 111.793 44.8438C111.582 45.1016 111.207 45.1836 110.668 45.0898C110.48 44.9961 110.27 44.9141 110.035 44.8438C109.871 44.7969 109.684 44.7266 109.473 44.6328C109.074 44.5625 108.74 44.3867 108.471 44.1055C108.201 43.8242 107.973 43.4961 107.785 43.1211C107.715 42.9219 107.662 42.7461 107.627 42.5938C107.615 42.5117 107.598 42.4238 107.574 42.3301C107.551 42.2363 107.527 42.1367 107.504 42.0312C107.492 41.832 107.457 41.6738 107.398 41.5566C107.352 41.4277 107.352 41.3047 107.398 41.1875C107.352 41.1289 107.34 41.0527 107.363 40.959C107.387 40.8418 107.398 40.7539 107.398 40.6953C107.375 40.3672 107.404 40.0156 107.486 39.6406C107.568 39.2656 107.68 38.9258 107.82 38.6211C107.891 38.5039 107.984 38.3867 108.102 38.2695C108.16 38.1992 108.195 38.1289 108.207 38.0586C108.219 38 108.254 37.9414 108.312 37.8828C108.371 37.8125 108.441 37.7422 108.523 37.6719C108.641 37.5781 108.723 37.5078 108.77 37.4609C108.828 37.3789 108.887 37.3027 108.945 37.2324C109.016 37.1504 109.092 37.0801 109.174 37.0215C109.256 36.9629 109.332 36.8984 109.402 36.8281C109.473 36.7578 109.543 36.6875 109.613 36.6172C109.695 36.5352 109.76 36.4531 109.807 36.3711C109.865 36.2773 109.953 36.207 110.07 36.1602C110.164 35.9961 110.27 35.8613 110.387 35.7559C110.504 35.6504 110.633 35.5391 110.773 35.4219C111.172 34.9414 111.664 34.5312 112.25 34.1914C112.848 33.8516 113.375 33.4766 113.832 33.0664C113.996 32.9961 114.137 32.9141 114.254 32.8203C114.371 32.7266 114.488 32.6328 114.605 32.5391C114.898 32.2812 115.215 32.1992 115.555 32.293L116.469 32.5391C116.703 32.75 116.932 32.9609 117.154 33.1719C117.377 33.3828 117.57 33.6172 117.734 33.875C117.816 33.8633 117.904 33.8574 117.998 33.8574C118.092 33.8457 118.191 33.8457 118.297 33.8574C118.508 33.8809 118.73 33.8633 118.965 33.8047C119.035 33.8047 119.105 33.7871 119.176 33.752C119.246 33.7168 119.305 33.6992 119.352 33.6992C119.703 33.8164 119.879 33.9922 119.879 34.2266ZM115.238 34.7539C114.605 35.0586 114.031 35.416 113.516 35.8262C113 36.2363 112.508 36.6758 112.039 37.1445C111.98 37.2031 111.916 37.2617 111.846 37.3203C111.787 37.3672 111.729 37.4199 111.67 37.4785C111.611 37.5254 111.553 37.5781 111.494 37.6367C111.436 37.6953 111.383 37.7539 111.336 37.8125C111.242 37.9297 111.154 38.0703 111.072 38.2344C110.99 38.3984 110.914 38.5508 110.844 38.6914C110.82 38.7383 110.797 38.7852 110.773 38.832C110.75 38.8672 110.727 38.8965 110.703 38.9199C110.68 38.9434 110.656 38.9727 110.633 39.0078C110.609 39.043 110.586 39.0781 110.562 39.1133C110.516 39.2305 110.498 39.3477 110.51 39.4648C110.521 39.5469 110.527 39.6758 110.527 39.8516V40.2031C110.527 40.2734 110.539 40.3906 110.562 40.5547C110.633 40.8125 110.668 41.0703 110.668 41.3281C110.668 41.5156 110.686 41.7441 110.721 42.0137C110.756 42.2832 110.844 42.4648 110.984 42.5586C111.137 42.6523 111.283 42.6758 111.424 42.6289C111.588 42.5703 111.723 42.5352 111.828 42.5234C112.648 41.8906 113.422 41.2285 114.148 40.5371C114.875 39.8457 115.52 39.0664 116.082 38.1992C116.035 37.625 116.029 37.0332 116.064 36.4238C116.1 35.8496 116.047 35.3164 115.906 34.8242C115.812 34.7656 115.701 34.748 115.572 34.7715C115.479 34.7832 115.367 34.7773 115.238 34.7539Z" fill="black"/>
</svg>
